<?xml version="1.0" encoding="UTF-8" standalone="no"?>
<!DOCTYPE svg PUBLIC "-//W3C//DTD SVG 1.1//EN" "http://www.w3.org/Graphics/SVG/1.1/DTD/svg11.dtd">
<svg height="43.0pt" stroke-miterlimit="10" style="fill:#000;stroke:#000;fill-rule:nonzero;clip-rule:evenodd;stroke-linecap:round;stroke-linejoin:round;" version="1.1" viewBox="0 0 32 43" width="32.0pt" xml:space="preserve" xmlns="http://www.w3.org/2000/svg" xmlns:xlink="http://www.w3.org/1999/xlink">
<defs/>
<g id="logo">
<path d="M15.0938 3.03125C14.9137 3.03125 14.7812 3.17375 14.7812 3.34375C14.7813 3.51375 14.9137 3.65625 15.0938 3.65625C15.2638 3.65625 15.4062 3.52375 15.4062 3.34375C15.4063 3.17375 15.2738 3.03125 15.0938 3.03125ZM17.1562 3.03125C16.9762 3.03125 16.8337 3.17375 16.8438 3.34375C16.8437 3.51375 16.9762 3.65625 17.1562 3.65625C17.3363 3.65625 17.4688 3.51375 17.4688 3.34375C17.4688 3.17375 17.3363 3.03125 17.1562 3.03125ZM14.0312 3.21875C13.8612 3.21875 13.7188 3.36125 13.7188 3.53125C13.7187 3.70125 13.8512 3.84375 14.0312 3.84375C14.2113 3.84375 14.375 3.70125 14.375 3.53125C14.375 3.36125 14.2113 3.21875 14.0312 3.21875ZM18.1875 3.21875C18.0075 3.21875 17.875 3.36125 17.875 3.53125C17.875 3.70125 18.0075 3.84375 18.1875 3.84375C18.3675 3.84375 18.5312 3.70125 18.5312 3.53125C18.5313 3.36125 18.3675 3.21875 18.1875 3.21875ZM13 3.59375C12.82 3.59375 12.6875 3.73625 12.6875 3.90625C12.6875 4.07625 12.82 4.21875 13 4.21875C13.18 4.21875 13.3438 4.07625 13.3438 3.90625C13.3438 3.73625 13.18 3.59375 13 3.59375ZM19.2188 3.59375C19.0387 3.59375 18.9062 3.73625 18.9062 3.90625C18.9062 4.07625 19.0387 4.21875 19.2188 4.21875C19.3988 4.21875 19.5625 4.07625 19.5625 3.90625C19.5625 3.73625 19.3988 3.59375 19.2188 3.59375ZM16.125 4.03125C15.955 4.03125 15.8125 4.17375 15.8125 4.34375C15.8125 4.51375 15.945 4.625 16.125 4.625C16.305 4.625 16.4375 4.51375 16.4375 4.34375C16.4375 4.17375 16.305 4.03125 16.125 4.03125ZM12.0312 4.21875C11.8612 4.21875 11.6875 4.36125 11.6875 4.53125C11.6875 4.70125 11.8512 4.84375 12.0312 4.84375C12.2113 4.84375 12.3438 4.70125 12.3438 4.53125C12.3438 4.36125 12.2113 4.21875 12.0312 4.21875ZM20.2188 4.21875C20.0387 4.21875 19.9062 4.36125 19.9062 4.53125C19.9062 4.70125 20.0387 4.84375 20.2188 4.84375C20.3888 4.84375 20.5312 4.70125 20.5312 4.53125C20.5312 4.36125 20.3988 4.21875 20.2188 4.21875ZM22 4.96875C21.83 4.96875 21.6875 5.11125 21.6875 5.28125C21.6875 5.45125 21.82 5.59375 22 5.59375C22.18 5.59375 22.3438 5.45125 22.3438 5.28125C22.3438 5.11125 22.18 4.96875 22 4.96875ZM10.2188 5C10.0387 5 9.90625 5.1425 9.90625 5.3125C9.90625 5.4825 10.0387 5.625 10.2188 5.625C10.3988 5.625 10.5625 5.4825 10.5625 5.3125C10.5625 5.1425 10.3988 5 10.2188 5ZM11.25 5.0625C11.07 5.0625 10.9375 5.205 10.9375 5.375C10.9375 5.545 11.07 5.6875 11.25 5.6875C11.43 5.6875 11.6038 5.545 11.5938 5.375C11.5938 5.205 11.43 5.0625 11.25 5.0625ZM20.9688 5.0625C20.7887 5.0625 20.6562 5.205 20.6562 5.375C20.6562 5.545 20.7887 5.6875 20.9688 5.6875C21.1488 5.6875 21.3125 5.545 21.3125 5.375C21.3125 5.205 21.1488 5.0625 20.9688 5.0625ZM16.125 5.15625C15.955 5.15625 15.8125 5.29875 15.8125 5.46875C15.8125 5.63875 15.945 5.78125 16.125 5.78125C16.305 5.78125 16.4375 5.63875 16.4375 5.46875C16.4375 5.29875 16.305 5.15625 16.125 5.15625ZM9.21875 5.375C9.03875 5.375 8.875 5.5175 8.875 5.6875C8.875 5.8575 9.03875 6 9.21875 6C9.39875 6 9.54125 5.8575 9.53125 5.6875C9.53125 5.5175 9.39875 5.375 9.21875 5.375ZM23.0312 5.375C22.8512 5.375 22.7188 5.5175 22.7188 5.6875C22.7188 5.8575 22.8512 6 23.0312 6C23.2113 6 23.3438 5.8575 23.3438 5.6875C23.3438 5.5175 23.2113 5.375 23.0312 5.375ZM8.28125 6.03125C8.10125 6.03125 7.9375 6.17375 7.9375 6.34375C7.9375 6.51375 8.10125 6.65625 8.28125 6.65625C8.46125 6.65625 8.59375 6.51375 8.59375 6.34375C8.59375 6.17375 8.46125 6.03125 8.28125 6.03125ZM23.9688 6.03125C23.7887 6.03125 23.6562 6.17375 23.6562 6.34375C23.6562 6.51375 23.7887 6.65625 23.9688 6.65625C24.1488 6.65625 24.2812 6.51375 24.2812 6.34375C24.2812 6.17375 24.1488 6.03125 23.9688 6.03125ZM10.75 6.0625C10.57 6.0625 10.4375 6.205 10.4375 6.375C10.4375 6.545 10.57 6.65625 10.75 6.65625C10.92 6.65625 11.0938 6.545 11.0938 6.375C11.0938 6.205 10.93 6.0625 10.75 6.0625ZM21.5 6.0625C21.32 6.0625 21.1462 6.205 21.1562 6.375C21.1562 6.545 21.32 6.65625 21.5 6.65625C21.68 6.65625 21.8125 6.545 21.8125 6.375C21.8125 6.205 21.68 6.0625 21.5 6.0625ZM16.125 6.28125C15.955 6.28125 15.8125 6.42375 15.8125 6.59375C15.8125 6.76375 15.945 6.90625 16.125 6.90625C16.305 6.90625 16.4375 6.76375 16.4375 6.59375C16.4375 6.42375 16.305 6.28125 16.125 6.28125ZM7.5 6.90625C7.32 6.90625 7.1875 7.04875 7.1875 7.21875C7.1875 7.38875 7.32 7.53125 7.5 7.53125C7.68 7.53125 7.8225 7.38875 7.8125 7.21875C7.8125 7.04875 7.68 6.90625 7.5 6.90625ZM24.75 6.90625C24.57 6.90625 24.3962 7.04875 24.4062 7.21875C24.4062 7.38875 24.57 7.53125 24.75 7.53125C24.92 7.53125 25.0625 7.38875 25.0625 7.21875C25.0625 7.04875 24.93 6.90625 24.75 6.90625ZM10.5 7.15625C10.32 7.15625 10.1562 7.29875 10.1562 7.46875C10.1563 7.63875 10.32 7.78125 10.5 7.78125C10.67 7.78125 10.8125 7.63875 10.8125 7.46875C10.8125 7.29875 10.68 7.15625 10.5 7.15625ZM21.75 7.15625C21.57 7.15625 21.4275 7.28875 21.4375 7.46875C21.4375 7.63875 21.57 7.78125 21.75 7.78125C21.93 7.78125 22.0938 7.63875 22.0938 7.46875C22.0938 7.29875 21.93 7.15625 21.75 7.15625ZM16.125 7.625C15.805 7.625 15.5313 7.8775 15.5312 8.1875C15.5367 8.50232 15.8102 8.75557 16.125 8.75C16.445 8.75 16.6875 8.4975 16.6875 8.1875C16.6875 7.8775 16.445 7.625 16.125 7.625ZM7.03125 7.875C6.86125 7.875 6.6875 8.0175 6.6875 8.1875C6.6875 8.3575 6.85125 8.5 7.03125 8.5C7.21125 8.5 7.35375 8.3575 7.34375 8.1875C7.34375 8.0175 7.21125 7.875 7.03125 7.875ZM25.2188 7.875C25.0387 7.875 24.9062 8.0175 24.9062 8.1875C24.9062 8.3575 25.0387 8.5 25.2188 8.5C25.3988 8.5 25.5312 8.3575 25.5312 8.1875C25.5312 8.0175 25.3988 7.875 25.2188 7.875ZM11 8.28125C10.69 8.35125 10.5137 8.6375 10.5938 8.9375C10.6737 9.2375 11.0025 9.42375 11.3125 9.34375C11.6225 9.27375 11.7988 8.95625 11.7188 8.65625C11.6388 8.35625 11.31 8.20125 11 8.28125ZM21.2188 8.28125C20.9087 8.20125 20.6113 8.35625 20.5312 8.65625C20.4512 8.95625 20.6275 9.26375 20.9375 9.34375C21.2475 9.42375 21.5762 9.2375 21.6562 8.9375C21.7363 8.6375 21.5288 8.36125 21.2188 8.28125ZM6.75 9C6.57 9 6.4375 9.1425 6.4375 9.3125C6.4375 9.4825 6.57 9.625 6.75 9.625C6.93 9.625 7.0725 9.4825 7.0625 9.3125C7.0625 9.1425 6.93 9 6.75 9ZM25.5 9C25.32 9 25.1562 9.1425 25.1562 9.3125C25.1562 9.4825 25.32 9.625 25.5 9.625C25.68 9.625 25.8125 9.4825 25.8125 9.3125C25.8125 9.1425 25.68 9 25.5 9ZM6.59375 10.2812C6.4593 10.3483 6.35602 10.4499 6.3125 10.5938C6.26898 10.7376 6.3003 10.9009 6.375 11.0312C6.535 11.3012 6.87625 11.4 7.15625 11.25C7.43625 11.1 7.525 10.77 7.375 10.5C7.215 10.23 6.87375 10.1312 6.59375 10.2812ZM25.625 10.2812C25.345 10.1312 25.0038 10.23 24.8438 10.5C24.7717 10.6309 24.7692 10.7632 24.8125 10.9062C24.8558 11.0493 24.9612 11.181 25.0938 11.25C25.3738 11.4 25.725 11.3013 25.875 11.0312C26.025 10.7613 25.905 10.4313 25.625 10.2812ZM14.0625 11.2812C13.8925 11.2813 13.7188 11.4237 13.7188 11.5938C13.7187 11.7638 13.8825 11.9062 14.0625 11.9062C14.2425 11.9063 14.375 11.7638 14.375 11.5938C14.375 11.4237 14.2425 11.2812 14.0625 11.2812ZM18.1875 11.2812C18.0075 11.2813 17.875 11.4237 17.875 11.5938C17.875 11.7638 18.0075 11.9062 18.1875 11.9062C18.3675 11.9063 18.51 11.7638 18.5 11.5938C18.5 11.4237 18.3675 11.2812 18.1875 11.2812ZM10.0625 12.3438C9.8925 12.3438 9.71875 12.455 9.71875 12.625C9.71875 12.795 9.8825 12.9375 10.0625 12.9375C10.2425 12.9375 10.375 12.795 10.375 12.625C10.375 12.455 10.2425 12.3438 10.0625 12.3438ZM22.1875 12.3438C22.0075 12.3438 21.875 12.455 21.875 12.625C21.875 12.795 22.0075 12.9375 22.1875 12.9375C22.3675 12.9375 22.51 12.795 22.5 12.625C22.5 12.455 22.3675 12.3438 22.1875 12.3438Z" fill-rule="nonzero" opacity="1" stroke-linecap="round" stroke-linejoin="miter" stroke-width="0.0898669"/>
<path d="M31.49 27.45C31.49 35.62 24.59 42.29 16.12 42.29C7.64 42.29 0.75 35.62 0.75 27.45C0.75 19.27 7.65 12.59 16.12 12.59C24.6 12.59 31.49 19.27 31.49 27.45ZM31.05 27.45C31.05 19.51 24.35 13.03 16.12 13.03C7.89 13.03 1.19 19.51 1.19 27.45C1.19 35.38 7.89 41.86 16.12 41.86C24.35 41.86 31.05 35.38 31.05 27.45ZM3.1 27.45C3.1 34.36 8.96 40.02 16.12 40.02C23.28 40.02 29.14 34.37 29.14 27.45C29.14 20.52 23.28 14.89 16.12 14.89C8.96 14.88 3.1 20.52 3.1 27.45ZM2.66 27.45C2.66 20.28 8.72 14.45 16.12 14.45C23.53 14.45 29.59 20.28 29.59 27.45C29.59 34.6 23.53 40.45 16.12 40.45C8.71 40.44 2.66 34.6 2.66 27.45ZM17.7 24.58L24.98 31.83C25.81 30.51 26.23 29.16 26.23 27.29C26.23 24.03 24.33 21.06 22.5 19.74L21.4 20.83C22.27 21.5 22.9 22.23 23.47 23.15L21.45 24.84C20.97 23.92 20.46 23.27 19.59 22.66L17.7 24.58ZM26.93 33.77C25.62 35.92 23.62 37.62 21.25 38.64L20.07 37.48L17.87 35.31C17.37 35.42 16.85 35.48 16.32 35.49L16.32 37.31L13.8 37.31L13.8 35.21C10.02 34.22 7.41 30.8 7.45 27.09C7.46 26.47 7.55 25.87 7.7 25.29L6.46 24.07C6.09 25.07 5.88 26.15 5.84 27.3C5.77 29.6 6.81 32.09 8.54 33.68L6.72 35.47C4.58 33.15 3.41 30.54 3.41 27.4C3.41 22.82 6.01 18.82 10.1 16.62L13.03 19.58C14 19.24 15.1 19.07 16.11 19.07C17.2 19.08 18.19 19.27 19.08 19.58L22.06 16.59C26.18 18.8 28.78 22.8 28.78 27.41C28.79 29.75 28.14 31.87 26.93 33.77ZM13.79 31.3L10.03 27.6C10.12 29.67 11.43 31.63 13.79 32.5L13.79 31.3ZM19.29 19.98L19.19 20.08C18.2102 19.7024 17.17 19.5058 16.12 19.5C15.02 19.5 13.95 19.7 12.92 20.08L10.02 17.16C6.35 19.2 3.86 23.04 3.86 27.4C3.86 30.28 4.93 32.79 6.74 34.83L7.91 33.68C6.9 32.67 5.3 30.27 5.39 27.28C5.51 23.9 6.96 21.3 9.66 19.17L11.4 20.91C9.34 22.41 7.92 24.52 7.89 27.09C7.84 30.84 10.52 33.98 14.24 34.87L14.24 36.87L15.87 36.87L15.87 35.06C18.31 35.04 20.63 34.13 22.23 32.33L20.97 31.1C19.75 32.4 17.75 33.46 15.86 33.36L15.86 31.38L18.4 31.38L18.4 30L15.86 30L15.86 28.43L18.43 28.43L18.43 27.22L14.23 27.22L14.23 33.1C11.48 32.21 9.51 30.18 9.58 27.25C9.63 25.05 10.71 23.28 12.55 22.04L16.1 25.57L19.52 22.09C20.39 22.66 21.05 23.28 21.57 24.16L22.88 23.07C22.29 22.17 21.59 21.53 20.71 20.89L22.43 19.19C25.03 20.93 26.66 24.29 26.66 27.3C26.66 30.11 25.68 31.88 24.18 33.65L25.51 34.94C27.28 32.89 28.33 30.28 28.33 27.41C28.33 23.02 25.84 19.18 22.14 17.13C22.14 17.13 19.29 19.98 19.29 19.98ZM14.16 21.32C14.76 21.19 15.39 21.05 16.01 21.07C16.68 21.09 17.29 21.21 17.93 21.37L16.11 23.23L14.16 21.32ZM15.05 21.58L16.1 22.62L17.08 21.62C16.73 21.55 16.37 21.52 15.99 21.51C15.76 21.5 15.41 21.53 15.05 21.58ZM22.87 12.85L22.96 13.2L23 13.32L23.07 13.28L23.41 13.1L23.32 12.76L23.3 12.69L22.87 12.85ZM23.54 12.22C23.8 12.31 24.03 12.05 23.91 11.83L23.84 11.69C24.3 11.83 24.64 11.83 25.04 11.53C25.36 11.74 25.65 11.7 25.95 11.48C26.24 11.26 26.41 10.84 26.07 10.57C26.33 10.24 26.34 9.88 25.95 9.65C26.02 9.54 26.06 9.45 26.06 9.31C26.06 8.94 25.77 8.79 25.45 8.73C25.64 8.58 25.79 8.46 25.79 8.2C25.79 7.82 25.48 7.66 25.14 7.63C25.23 7.49 25.3 7.4 25.3 7.22C25.3 6.91 25.04 6.66 24.71 6.66C24.61 6.66 24.51 6.69 24.41 6.72C24.47 6.59 24.52 6.5 24.52 6.36C24.52 6.05 24.26 5.8 23.93 5.8C23.77 5.8 23.68 5.85 23.55 5.92C23.56 5.85 23.58 5.77 23.58 5.7C23.5745 5.37965 23.3103 5.12443 22.99 5.13C22.81 5.13 22.71 5.2 22.57 5.29C22.5 4.99 22.33 4.75 21.97 4.75C21.71 4.75 21.56 4.89 21.43 5.08C21.29 4.93 21.16 4.83 20.94 4.83C20.85 4.83 20.76 4.85 20.68 4.87C20.73 4.76 20.77 4.67 20.77 4.55C20.77 4.24 20.51 3.99 20.18 3.99C19.99 3.99 19.89 4.06 19.74 4.15C19.75 4.08 19.77 3.99 19.77 3.91C19.77 3.6 19.51 3.35 19.18 3.35C18.99 3.35 18.89 3.42 18.74 3.52C18.67 3.22 18.5 2.98 18.15 2.98C17.93 2.98 17.81 3.07 17.67 3.21C17.55 2.97 17.4 2.8 17.1 2.8C17.01 2.8 16.95 2.82 16.87 2.85C16.69 2.65 16.53 2.56 16.27 2.5L16.27 1.9L16.76 1.9L16.76 1.53L16.27 1.53L16.27 1.1L15.88 1.1L15.88 1.53L15.39 1.53L15.39 1.88L15.88 1.88L15.88 2.48C15.63 2.54 15.47 2.63 15.28 2.83C15.2071 2.79915 15.1291 2.78219 15.05 2.78C14.75 2.78 14.59 2.96 14.48 3.19C14.34 3.05 14.21 2.96 14 2.96C13.64 2.96 13.47 3.21 13.4 3.5C13.26 3.4 13.15 3.33 12.97 3.33C12.65 3.33 12.38 3.58 12.38 3.89C12.38 3.97 12.4 4.06 12.42 4.13C12.27 4.04 12.16 3.96 11.98 3.96C11.6652 3.95443 11.4055 4.20518 11.4 4.52C11.4 4.64 11.44 4.73 11.49 4.84C11.4 4.82 11.32 4.8 11.23 4.8C11.01 4.8 10.88 4.9 10.74 5.05C10.61 4.85 10.46 4.72 10.2 4.72C9.84 4.72 9.67 4.97 9.61 5.26C9.5 5.18 9.39 5.11 9.21 5.11C8.88966 5.10443 8.62548 5.35965 8.62 5.68C8.62 5.75 8.64 5.83 8.65 5.9C8.538 5.82328 8.40575 5.78152 8.27 5.78C7.95 5.78 7.68 6.03 7.68 6.34C7.68 6.48 7.73 6.58 7.79 6.7C7.7 6.68 7.61 6.65 7.5 6.65C7.18 6.65 6.91 6.9 6.91 7.21C6.91 7.38 6.98 7.48 7.07 7.62C6.74 7.65 6.44 7.81 6.44 8.19C6.44 8.45 6.59 8.58 6.78 8.72C6.46 8.79 6.17 8.93 6.17 9.3C6.17 9.44 6.21 9.53 6.28 9.64C5.9 9.88 5.9 10.24 6.16 10.57C5.6 11.02 6.45 12.02 7.19 11.53C7.59 11.83 7.93 11.83 8.39 11.69C8.33 11.82 8.25 11.93 8.32 12.07C8.39 12.22 8.56 12.28 8.71 12.21C10.96 11.19 13.47 10.62 16.12 10.62C18.78 10.63 21.29 11.2 23.54 12.22ZM9.37 12.85L9.06 12.74L8.94 12.7L8.92 12.77L8.83 13.1L9.17 13.28L9.24 13.32L9.27 13.19L9.37 12.85ZM9.17 13.39L8.72 13.15L8.83 12.72C8.66 12.7 8.58 12.51 8.66 12.38C8.47096 12.4076 8.28554 12.3108 8.2 12.14C8.16 12.06 8.15 11.98 8.16 11.9C7.82 11.97 7.46 11.89 7.19 11.7C6.4 12.16 5.47 11.06 5.98 10.55C5.75 10.22 5.81 9.82 6.1 9.6C6.05113 9.50773 6.02701 9.40437 6.03 9.3C6.03 9.01 6.22 8.76 6.48 8.65C6.36421 8.52481 6.29992 8.36053 6.3 8.19C6.3 7.86 6.54 7.59 6.85 7.51C6.80113 7.41773 6.77701 7.31437 6.78 7.21C6.78 6.82 7.1 6.51 7.5 6.51L7.57 6.51C7.51963 6.29757 7.57023 6.07379 7.70709 5.9037C7.84395 5.7336 8.05171 5.63627 8.27 5.64C8.35 5.64 8.42 5.65 8.49 5.67C8.49 5.29 8.82 4.98 9.21 4.98C9.33 4.98 9.44 5.01 9.54 5.06C9.64 4.79 9.91 4.6 10.22 4.6C10.44 4.6 10.65 4.7 10.78 4.86C10.91 4.75 11.07 4.69 11.26 4.69L11.31 4.69C11.3 4.64 11.29 4.59 11.29 4.54C11.29 4.15 11.61 3.84 12.01 3.84C12.11 3.84 12.2 3.86 12.28 3.89C12.29 3.51 12.61 3.2 13 3.2C13.13 3.2 13.25 3.23 13.35 3.29C13.45 3.02 13.72 2.83 14.03 2.83C14.2 2.83 14.35 2.88 14.47 2.98C14.6 2.79 14.82 2.66 15.08 2.66C15.15 2.66 15.21 2.67 15.27 2.69C15.39 2.57 15.53 2.48 15.7 2.41L15.77 2.38L15.77 2.02L15.28 2.02L15.28 1.4L15.77 1.4L15.77 0.97L16.44 0.97L16.44 1.4L16.93 1.4L16.93 2.02L16.44 2.02L16.44 2.38L16.51 2.41C16.67 2.47 16.82 2.56 16.94 2.69C17 2.67 17.06 2.66 17.13 2.66C17.39 2.66 17.61 2.79 17.74 2.98C17.86 2.89 18.02 2.83 18.18 2.83C18.49 2.83 18.76 3.02 18.86 3.29C18.96 3.23 19.08 3.2 19.21 3.2C19.61 3.2 19.93 3.51 19.93 3.89C20.01 3.86 20.1 3.84 20.2 3.84C20.6 3.84 20.92 4.15 20.92 4.54C20.92 4.59 20.92 4.64 20.9 4.69L20.95 4.69C21.1242 4.69287 21.2928 4.75257 21.43 4.86C21.56 4.7 21.76 4.6 21.99 4.6C22.3 4.6 22.57 4.79 22.67 5.06C22.77 5.01 22.88 4.98 23 4.98C23.4 4.98 23.72 5.29 23.72 5.67C23.7915 5.64956 23.8656 5.63946 23.94 5.64C24.34 5.64 24.66 5.95 24.66 6.34C24.66 6.4 24.65 6.46 24.64 6.52L24.71 6.52C25.11 6.52 25.43 6.83 25.43 7.22C25.43 7.33 25.4 7.43 25.36 7.52C25.68 7.59 25.91 7.87 25.91 8.2C25.91 8.38 25.84 8.54 25.72 8.67C25.99 8.77 26.18 9.02 26.18 9.32C26.18 9.43 26.15 9.53 26.11 9.62C26.4 9.84 26.46 10.24 26.23 10.57C26.55 10.89 26.27 11.4 26 11.61C25.74 11.81 25.37 11.93 25.01 11.72C24.73 11.91 24.38 11.99 24.04 11.92C24.08 12.2 23.82 12.44 23.54 12.4C23.62 12.53 23.54 12.72 23.37 12.74L23.48 13.17L23.03 13.41C23.09 13.48 23.1 13.58 23.06 13.67C23 13.79 22.86 13.86 22.73 13.8C20.71 12.88 18.46 12.37 16.07 12.37C13.69 12.37 11.44 12.88 9.42 13.8C9.29 13.86 9.15 13.79 9.09 13.67C9.1 13.56 9.11 13.46 9.17 13.39ZM9.48 12.79L9.34 13.32L9.38 13.41C9.36 13.42 9.33 13.43 9.3 13.45C9.26 13.48 9.23 13.52 9.26 13.59C9.29 13.65 9.35 13.67 9.4 13.65C11.44 12.72 13.71 12.21 16.11 12.21C18.52 12.21 20.78 12.72 22.82 13.65C22.92 13.7 23.1 13.52 22.85 13.41L22.89 13.32L22.75 12.79L23.23 12.62L23.27 12.55C23.31 12.57 23.34 12.57 23.37 12.58C23.5 12.59 23.49 12.45 23.43 12.42C21.134 11.3788 18.641 10.8433 16.12 10.85C13.5 10.85 11.03 11.41 8.81 12.42C8.75 12.45 8.74 12.59 8.87 12.58C8.9 12.58 8.93 12.57 8.97 12.55L9 12.62C9 12.62 9.48 12.79 9.48 12.79ZM20.46 6.61C19.89 5.22 18.55 4.23 16.77 4.32C16.77 4.44 16.73 4.55 16.67 4.65L16.67 5.12C16.73 5.22 16.77 5.33 16.77 5.45C16.77 5.57 16.73 5.69 16.67 5.78L16.67 6.08C17.89 5.92 19.33 6.04 20.46 6.61ZM16.66 6.26C16.8362 6.52425 16.7747 6.88024 16.52 7.07C16.74 7.14 16.91 7.3 16.97 7.58C17.41 7.68 17.53 8 17.53 8.34C17.53 8.75 17.36 9.1 16.74 9.13C16.81 9.36 17.03 9.52 17.29 9.52C17.54 9.52 17.76 9.36 17.83 9.14C17.81 9.08 17.81 9.02 17.81 8.96C17.81 8.57 18.14 8.26 18.54 8.26C18.94 8.26 19.27 8.57 19.27 8.96C19.27 9.08 19.24 9.19 19.18 9.29C19.19 9.53 19.36 9.73 19.61 9.8C19.86 9.86 20.11 9.76 20.24 9.55C19.65 9.37 19.57 8.99 19.68 8.59C19.77 8.26 19.97 7.98 20.41 7.99C20.49 7.83 20.6 7.73 20.73 7.67C20.69 7.34 20.62 7.03 20.5 6.73C19.34 6.11 17.83 6 16.66 6.17C16.66 6.17 16.66 6.26 16.66 6.26ZM15.62 4.32C15.62 4.43 15.66 4.52 15.72 4.61L15.72 5.16C15.66 5.25 15.62 5.34 15.62 5.45C15.62 5.56 15.66 5.65 15.72 5.74L15.72 6.3C15.66 6.39 15.62 6.48 15.62 6.59C15.62 6.92 15.87 7.01 16.12 7.12C16.37 7.01 16.62 6.91 16.62 6.59C16.62 6.49 16.59 6.39 16.53 6.32L16.52 5.75C16.58 5.66 16.62 5.57 16.62 5.46C16.62 5.35 16.58 5.26 16.52 5.17L16.52 4.61C16.58 4.52 16.62 4.43 16.62 4.32C16.62 4.28 16.61 4.24 16.61 4.19C18.96 4.02 20.65 5.57 20.88 7.75C20.67 7.83 20.59 7.92 20.5 8.12C20.09 8.1 19.91 8.26 19.81 8.62C19.67 9.13 19.93 9.33 20.44 9.46C20.29 9.79 19.98 10.02 19.58 9.92C19.2682 9.84835 19.048 9.56989 19.05 9.25C19.1095 9.16135 19.1409 9.05678 19.14 8.95C19.1345 8.62965 18.8703 8.37443 18.55 8.38C18.2297 8.37443 17.9655 8.62965 17.96 8.95C17.96 9.01 17.97 9.07 17.99 9.13C17.9 9.43 17.63 9.64 17.3 9.64C16.89 9.64 16.65 9.35 16.59 8.99C17.11 8.99 17.41 8.86 17.41 8.33C17.41 7.95 17.27 7.76 16.87 7.68C16.78 7.21 16.53 7.18 16.13 7.12C15.72 7.19 15.48 7.21 15.39 7.68C14.99 7.76 14.85 7.95 14.85 8.33C14.85 8.86 15.15 8.99 15.67 8.99C15.61 9.35 15.37 9.64 14.96 9.64C14.6428 9.64058 14.3625 9.43345 14.27 9.13C14.29 9.07 14.3 9.01 14.3 8.95C14.2945 8.62965 14.0303 8.37443 13.71 8.38C13.38 8.38 13.12 8.63 13.12 8.95C13.12 9.06 13.15 9.16 13.21 9.25C13.2 9.57 13 9.84 12.68 9.92C12.28 10.02 11.97 9.79 11.82 9.46C12.33 9.33 12.58 9.13 12.45 8.62C12.35 8.26 12.17 8.1 11.76 8.12C11.66 7.92 11.59 7.83 11.38 7.75C11.61 5.57 13.29 4.02 15.65 4.19C15.63 4.24 15.62 4.28 15.62 4.32ZM11.73 6.74C11.62 7.04 11.54 7.35 11.51 7.68C11.64 7.74 11.75 7.84 11.83 8C12.28 7.99 12.48 8.27 12.57 8.6C12.68 9 12.6 9.38 12.01 9.56C12.14 9.76 12.39 9.87 12.64 9.81C12.89 9.75 13.06 9.54 13.07 9.3C13.0101 9.2004 12.979 9.0862 12.98 8.97C12.98 8.58 13.31 8.27 13.71 8.27C14.11 8.27 14.44 8.58 14.44 8.97C14.44 9.03 14.43 9.09 14.42 9.15C14.5 9.37 14.71 9.53 14.96 9.53C15.22 9.53 15.43 9.37 15.51 9.14C14.89 9.11 14.72 8.76 14.72 8.35C14.72 8 14.84 7.69 15.28 7.59C15.35 7.31 15.52 7.16 15.73 7.08C15.582 6.96414 15.4939 6.78792 15.49 6.6C15.49 6.48 15.53 6.36 15.59 6.27L15.59 6.17C14.4 6.01 12.89 6.12 11.73 6.74ZM15.48 4.32C13.69 4.22 12.36 5.22 11.78 6.61C12.9 6.05 14.35 5.91 15.57 6.08L15.57 5.78C15.51 5.68 15.47 5.57 15.47 5.45C15.47 5.33 15.51 5.21 15.57 5.12L15.57 4.65C15.5134 4.54906 15.4825 4.43572 15.48 4.32ZM22.76 10.68L22.8 10.65C22.88 10.71 22.95 10.75 23.05 10.78C23.09 10.79 23.14 10.79 23.18 10.8C23.23 11.05 23.32 11.25 23.5 11.43L23.42 11.54C22.99 11.36 22.56 11.19 22.11 11.04L22.13 10.91C22.35 10.89 22.58 10.81 22.76 10.68ZM22.8 10.81C22.68 10.89 22.54 10.95 22.4 10.99C22.68 11.09 22.96 11.2 23.23 11.31C23.1509 11.191 23.0934 11.059 23.06 10.92L23.02 10.91C22.94 10.89 22.87 10.85 22.8 10.81ZM16.05 9.12L16.19 9.12C16.24 9.48 16.48 9.79 16.81 9.94L16.78 10.07C16.56 10.06 16.34 10.06 16.12 10.06C15.9 10.06 15.68 10.06 15.46 10.07L15.43 9.94C15.76 9.78 16 9.48 16.05 9.12ZM16.12 9.39C16.04 9.6 15.9 9.78 15.71 9.92C15.85 9.92 15.98 9.91 16.12 9.91C16.26 9.91 16.39 9.91 16.53 9.92C16.3476 9.78394 16.2059 9.60069 16.12 9.39ZM8.83 11.53L8.75 11.42C8.93 11.23 9.02 11.04 9.07 10.79C9.24 10.77 9.3 10.75 9.44 10.65C9.65 10.8 9.86 10.89 10.12 10.9L10.14 11.03C9.69 11.18 9.26 11.35 8.83 11.53ZM9.02 11.31C9.29 11.2 9.57 11.09 9.85 10.99C9.71 10.95 9.57 10.89 9.45 10.81C9.39 10.85 9.31 10.88 9.24 10.9L9.2 10.91C9.15 11.05 9.1 11.19 9.02 11.31ZM12.27 10.32L12.27 10.45C11.84 10.54 11.43 10.64 11.01 10.76L10.95 10.64C11.22 10.41 11.38 10.06 11.33 9.7L11.46 9.67C11.6 10.01 11.91 10.25 12.27 10.32ZM11.99 10.37C11.78 10.28 11.6 10.14 11.47 9.96C11.44 10.18 11.36 10.39 11.22 10.56C11.47 10.49 11.73 10.43 11.99 10.37ZM13.16 10.28L13.11 10.16C13.36 10 13.52 9.79 13.62 9.52L13.7 9.52C13.78 9.52 13.84 9.5 13.92 9.48C14.09 9.72 14.29 9.89 14.58 9.97L14.57 10.1C14.09 10.15 13.62 10.21 13.16 10.28ZM13.72 9.66C13.65 9.83 13.54 9.98 13.4 10.11C13.69 10.07 13.99 10.03 14.29 10C14.12 9.91 13.98 9.79 13.87 9.64C13.82 9.65 13.77 9.66 13.72 9.66ZM17.67 10.11L17.66 9.98C17.95 9.89 18.15 9.72 18.32 9.49C18.4 9.51 18.46 9.53 18.54 9.53L18.62 9.53C18.72 9.8 18.88 10.01 19.13 10.17L19.08 10.29C18.62 10.21 18.15 10.15 17.67 10.11ZM18.52 9.66C18.4727 9.65897 18.4257 9.65226 18.38 9.64C18.27 9.79 18.12 9.91 17.95 10C18.25 10.03 18.55 10.06 18.84 10.11C18.71 9.99 18.61 9.85 18.53 9.69C18.53 9.69 18.52 9.66 18.52 9.66ZM21.3 10.64L21.24 10.76C20.83 10.64 20.41 10.54 19.98 10.45L19.98 10.32C20.33 10.25 20.64 10.01 20.78 9.68L20.91 9.71C20.87 10.07 21.02 10.42 21.3 10.64ZM21.03 10.56C20.89 10.39 20.8 10.18 20.78 9.96C20.65 10.14 20.46 10.28 20.26 10.37C20.51 10.43 20.77 10.49 21.03 10.56ZM21.23 8.27C20.92 8.19 20.6 8.37 20.52 8.67C20.44 8.97 20.63 9.28 20.94 9.35C21.25 9.43 21.57 9.25 21.65 8.95C21.73 8.65 21.54 8.34 21.23 8.27ZM21.25 8.18C21.61 8.27 21.83 8.62 21.74 8.97C21.65 9.32 21.28 9.53 20.92 9.44C20.7495 9.40152 20.6016 9.2962 20.5095 9.14767C20.4174 8.99914 20.3887 8.81984 20.43 8.65C20.52 8.3 20.89 8.09 21.25 8.18ZM21.76 7.17C21.58 7.17 21.44 7.31 21.44 7.48C21.44 7.65 21.59 7.79 21.76 7.79C21.94 7.79 22.08 7.65 22.08 7.48C22.08 7.3 21.94 7.17 21.76 7.17ZM21.76 7.08C21.99 7.08 22.18 7.26 22.18 7.48C22.18 7.7 21.99 7.88 21.76 7.88C21.53 7.88 21.34 7.7 21.34 7.48C21.34 7.26 21.53 7.08 21.76 7.08ZM21.49 6.05C21.31 6.05 21.17 6.19 21.17 6.36C21.17 6.53 21.32 6.67 21.49 6.67C21.67 6.67 21.81 6.53 21.81 6.36C21.81 6.19 21.67 6.05 21.49 6.05ZM21.49 5.96C21.72 5.96 21.91 6.14 21.91 6.36C21.91 6.58 21.72 6.76 21.49 6.76C21.26 6.76 21.07 6.58 21.07 6.36C21.07 6.14 21.26 5.96 21.49 5.96ZM25.49 8.99C25.31 8.99 25.17 9.13 25.17 9.3C25.17 9.47 25.31 9.61 25.49 9.61C25.67 9.61 25.81 9.47 25.81 9.3C25.81 9.13 25.67 8.99 25.49 8.99ZM25.49 8.9C25.72 8.9 25.91 9.08 25.91 9.3C25.91 9.52 25.72 9.7 25.49 9.7C25.26 9.7 25.07 9.52 25.07 9.3C25.07 9.08 25.26 8.9 25.49 8.9ZM25.22 7.88C25.04 7.88 24.9 8.02 24.9 8.19C24.9 8.36 25.04 8.5 25.22 8.5C25.4 8.5 25.54 8.36 25.54 8.19C25.54 8.02 25.4 7.88 25.22 7.88ZM25.22 7.79C25.45 7.79 25.64 7.97 25.64 8.19C25.64 8.41 25.45 8.59 25.22 8.59C24.99 8.59 24.8 8.41 24.8 8.19C24.81 7.97 24.99 7.79 25.22 7.79ZM24.74 6.9C24.56 6.9 24.42 7.04 24.42 7.21C24.42 7.38 24.57 7.52 24.74 7.52C24.92 7.52 25.06 7.38 25.06 7.21C25.06 7.04 24.92 6.9 24.74 6.9ZM24.74 6.81C24.97 6.81 25.16 6.99 25.16 7.21C25.16 7.43 24.97 7.61 24.74 7.61C24.51 7.61 24.32 7.43 24.32 7.21C24.32 6.99 24.51 6.81 24.74 6.81ZM23.97 6.03C23.79 6.03 23.65 6.17 23.65 6.34C23.65 6.51 23.79 6.65 23.97 6.65C24.15 6.65 24.29 6.51 24.29 6.34C24.29 6.17 24.15 6.03 23.97 6.03ZM23.97 5.94C24.2 5.94 24.39 6.12 24.39 6.34C24.39 6.56 24.21 6.74 23.97 6.74C23.74 6.74 23.55 6.56 23.55 6.34C23.56 6.12 23.74 5.94 23.97 5.94ZM23.03 5.37C22.85 5.37 22.71 5.51 22.71 5.68C22.71 5.85 22.85 5.99 23.03 5.99C23.21 5.99 23.35 5.85 23.35 5.68C23.35 5.51 23.21 5.37 23.03 5.37ZM23.03 5.28C23.26 5.28 23.45 5.46 23.45 5.68C23.45 5.9 23.26 6.08 23.03 6.08C22.8 6.08 22.61 5.9 22.61 5.68C22.61 5.46 22.8 5.28 23.03 5.28ZM22.01 4.98C21.83 4.98 21.69 5.12 21.69 5.29C21.69 5.46 21.83 5.6 22.01 5.6C22.19 5.6 22.33 5.46 22.33 5.29C22.34 5.12 22.19 4.98 22.01 4.98ZM22.01 4.89C22.24 4.89 22.43 5.07 22.43 5.29C22.43 5.51 22.24 5.69 22.01 5.69C21.78 5.69 21.59 5.51 21.59 5.29C21.6 5.07 21.78 4.89 22.01 4.89ZM20.98 5.07C20.8 5.07 20.66 5.21 20.66 5.38C20.66 5.55 20.8 5.69 20.98 5.69C21.16 5.69 21.3 5.55 21.3 5.38C21.3 5.21 21.16 5.07 20.98 5.07ZM20.98 4.98C21.21 4.98 21.4 5.16 21.4 5.38C21.4 5.6 21.21 5.78 20.98 5.78C20.75 5.78 20.56 5.6 20.56 5.38C20.56 5.16 20.75 4.98 20.98 4.98ZM20.22 4.22C20.04 4.22 19.9 4.36 19.9 4.53C19.9 4.7 20.04 4.84 20.22 4.84C20.4 4.84 20.54 4.7 20.54 4.53C20.55 4.36 20.4 4.22 20.22 4.22ZM20.22 4.14C20.45 4.14 20.64 4.32 20.64 4.54C20.64 4.76 20.45 4.94 20.22 4.94C19.99 4.94 19.8 4.76 19.8 4.54C19.81 4.32 19.99 4.14 20.22 4.14ZM19.23 3.59C19.05 3.59 18.91 3.73 18.91 3.9C18.91 4.07 19.05 4.21 19.23 4.21C19.41 4.21 19.55 4.07 19.55 3.9C19.55 3.73 19.41 3.59 19.23 3.59ZM19.23 3.5C19.46 3.5 19.65 3.68 19.65 3.9C19.65 4.12 19.46 4.3 19.23 4.3C19 4.3 18.81 4.12 18.81 3.9C18.82 3.68 19 3.5 19.23 3.5ZM18.2 3.22C18.02 3.22 17.88 3.36 17.88 3.53C17.88 3.7 18.02 3.84 18.2 3.84C18.38 3.84 18.52 3.7 18.52 3.53C18.53 3.36 18.38 3.22 18.2 3.22ZM18.2 3.13C18.43 3.13 18.62 3.31 18.62 3.53C18.62 3.75 18.43 3.93 18.2 3.93C17.97 3.93 17.78 3.75 17.78 3.53C17.79 3.31 17.97 3.13 18.2 3.13ZM17.15 3.04C16.97 3.04 16.83 3.18 16.83 3.35C16.83 3.52 16.97 3.66 17.15 3.66C17.33 3.66 17.47 3.52 17.47 3.35C17.47 3.18 17.33 3.04 17.15 3.04ZM17.15 2.95C17.38 2.95 17.57 3.13 17.57 3.35C17.57 3.57 17.38 3.75 17.15 3.75C16.92 3.75 16.74 3.57 16.74 3.35C16.73 3.13 16.92 2.95 17.15 2.95ZM7.16 11.25C7.44 11.1 7.54 10.76 7.39 10.49C7.22832 10.2166 6.87971 10.1195 6.6 10.27C6.32 10.42 6.22 10.76 6.37 11.03C6.52 11.3 6.88 11.4 7.16 11.25ZM7.2 11.33C6.87 11.5 6.47 11.39 6.29 11.07C6.204 10.9185 6.18422 10.7383 6.23531 10.5718C6.2864 10.4053 6.40385 10.2672 6.56 10.19C6.89 10.02 7.3 10.13 7.47 10.45C7.65 10.76 7.53 11.16 7.2 11.33ZM11.3 9.35C11.61 9.27 11.8 8.97 11.72 8.67C11.64 8.37 11.32 8.19 11.01 8.27C10.7 8.35 10.51 8.65 10.59 8.95C10.68 9.25 10.99 9.43 11.3 9.35ZM11.33 9.44C10.9742 9.53333 10.6093 9.32417 10.51 8.97C10.42 8.62 10.63 8.27 11 8.18C11.36 8.09 11.73 8.3 11.82 8.65C11.91 9 11.69 9.35 11.33 9.44ZM16.12 8.76C16.44 8.76 16.7 8.51 16.7 8.2C16.6945 7.88518 16.4348 7.63443 16.12 7.64C15.8052 7.63443 15.5455 7.88518 15.54 8.2C15.54 8.51 15.8 8.76 16.12 8.76ZM16.12 8.85C15.7555 8.85556 15.4555 8.56453 15.45 8.2C15.45 7.84 15.75 7.55 16.12 7.55C16.49 7.55 16.79 7.84 16.79 8.2C16.8 8.56 16.49 8.85 16.12 8.85ZM10.49 7.79C10.67 7.79 10.81 7.65 10.81 7.48C10.81 7.31 10.67 7.17 10.49 7.17C10.31 7.17 10.17 7.31 10.17 7.48C10.16 7.65 10.31 7.79 10.49 7.79ZM10.49 7.88C10.26 7.88 10.08 7.7 10.08 7.48C10.08 7.26 10.27 7.08 10.49 7.08C10.72 7.08 10.91 7.26 10.91 7.48C10.9 7.7 10.72 7.88 10.49 7.88ZM10.76 6.67C10.94 6.67 11.08 6.53 11.08 6.36C11.08 6.19 10.94 6.05 10.76 6.05C10.58 6.05 10.44 6.19 10.44 6.36C10.43 6.53 10.58 6.67 10.76 6.67ZM10.76 6.76C10.53 6.76 10.34 6.58 10.34 6.36C10.34 6.14 10.53 5.96 10.76 5.96C10.99 5.96 11.18 6.14 11.18 6.36C11.17 6.58 10.98 6.76 10.76 6.76ZM6.75 9.62C6.93 9.62 7.07 9.48 7.07 9.31C7.07 9.14 6.93 9 6.75 9C6.57 9 6.43 9.14 6.43 9.31C6.43 9.48 6.57 9.62 6.75 9.62ZM6.75 9.71C6.52 9.71 6.33 9.53 6.33 9.31C6.33 9.09 6.52 8.91 6.75 8.91C6.98 8.91 7.16 9.09 7.16 9.31C7.17 9.53 6.98 9.71 6.75 9.71ZM7.02 8.5C7.2 8.5 7.34 8.36 7.34 8.19C7.3346 8.01719 7.1929 7.87992 7.02 7.88C6.84 7.88 6.7 8.02 6.7 8.19C6.7 8.36 6.84 8.5 7.02 8.5ZM7.02 8.59C6.79 8.59 6.6 8.41 6.6 8.19C6.6 7.97 6.79 7.79 7.02 7.79C7.25 7.79 7.44 7.97 7.44 8.19C7.44 8.41 7.25 8.59 7.02 8.59ZM7.5 7.52C7.68 7.52 7.82 7.38 7.82 7.21C7.82 7.04 7.68 6.9 7.5 6.9C7.32 6.9 7.18 7.04 7.18 7.21C7.18 7.38 7.33 7.52 7.5 7.52ZM7.5 7.61C7.27 7.61 7.08 7.43 7.08 7.21C7.08 6.99 7.27 6.81 7.5 6.81C7.73 6.81 7.92 6.99 7.92 7.21C7.92 7.43 7.73 7.61 7.5 7.61ZM8.27 6.65C8.45 6.65 8.59 6.51 8.59 6.34C8.59 6.17 8.45 6.03 8.27 6.03C8.09 6.03 7.95 6.17 7.95 6.34C7.95 6.51 8.09 6.65 8.27 6.65ZM8.27 6.74C8.04 6.74 7.85 6.56 7.85 6.34C7.85 6.12 8.04 5.94 8.27 5.94C8.5 5.94 8.69 6.12 8.69 6.34C8.69 6.56 8.5 6.74 8.27 6.74ZM9.21 5.99C9.39 5.99 9.53 5.85 9.53 5.68C9.53 5.51 9.39 5.37 9.21 5.37C9.03 5.37 8.89 5.51 8.89 5.68C8.89 5.85 9.04 5.99 9.21 5.99ZM9.21 6.08C8.98 6.08 8.79 5.9 8.79 5.68C8.79 5.46 8.98 5.28 9.21 5.28C9.44 5.28 9.63 5.46 9.63 5.68C9.63 5.9 9.44 6.08 9.21 6.08ZM10.23 5.61C10.41 5.61 10.55 5.47 10.55 5.3C10.55 5.13 10.41 4.99 10.23 4.99C10.05 4.99 9.91 5.13 9.91 5.3C9.91 5.47 10.05 5.61 10.23 5.61ZM10.23 5.7C10 5.7 9.81 5.52 9.81 5.3C9.81 5.08 10 4.9 10.23 4.9C10.46 4.9 10.65 5.08 10.65 5.3C10.64 5.52 10.46 5.7 10.23 5.7ZM11.26 5.69C11.44 5.69 11.58 5.55 11.58 5.38C11.58 5.21 11.44 5.07 11.26 5.07C11.08 5.07 10.94 5.21 10.94 5.38C10.94 5.55 11.08 5.69 11.26 5.69ZM11.26 5.78C11.03 5.78 10.84 5.6 10.84 5.38C10.84 5.16 11.03 4.98 11.26 4.98C11.49 4.98 11.68 5.16 11.68 5.38C11.68 5.6 11.49 5.78 11.26 5.78ZM12.02 4.85C12.2 4.85 12.34 4.71 12.34 4.54C12.34 4.37 12.2 4.23 12.02 4.23C11.84 4.23 11.7 4.37 11.7 4.54C11.7 4.71 11.84 4.85 12.02 4.85ZM12.02 4.94C11.79 4.94 11.6 4.76 11.6 4.54C11.6 4.32 11.79 4.14 12.02 4.14C12.25 4.14 12.44 4.32 12.44 4.54C12.44 4.76 12.25 4.94 12.02 4.94ZM13.01 4.21C13.19 4.21 13.33 4.07 13.33 3.9C13.33 3.73 13.19 3.59 13.01 3.59C12.83 3.59 12.69 3.73 12.69 3.9C12.69 4.07 12.83 4.21 13.01 4.21ZM13.01 4.3C12.78 4.3 12.59 4.12 12.59 3.9C12.59 3.68 12.78 3.5 13.01 3.5C13.24 3.5 13.43 3.68 13.43 3.9C13.43 4.12 13.24 4.3 13.01 4.3ZM14.04 3.84C14.22 3.84 14.36 3.7 14.36 3.53C14.36 3.36 14.22 3.22 14.04 3.22C13.86 3.22 13.72 3.36 13.72 3.53C13.72 3.7 13.86 3.84 14.04 3.84ZM14.04 3.93C13.81 3.93 13.62 3.75 13.62 3.53C13.62 3.31 13.81 3.13 14.04 3.13C14.27 3.13 14.46 3.31 14.46 3.53C14.46 3.75 14.27 3.93 14.04 3.93ZM16.12 6.9C16.3 6.9 16.44 6.76 16.44 6.59C16.44 6.42 16.3 6.28 16.12 6.28C15.94 6.28 15.8 6.42 15.8 6.59C15.8 6.76 15.94 6.9 16.12 6.9ZM16.12 6.99C15.89 6.99 15.7 6.81 15.7 6.59C15.7 6.37 15.89 6.19 16.12 6.19C16.35 6.19 16.54 6.37 16.54 6.59C16.54 6.81 16.35 6.99 16.12 6.99ZM16.12 5.77C16.3 5.77 16.44 5.63 16.44 5.46C16.44 5.29 16.3 5.15 16.12 5.15C15.94 5.15 15.8 5.29 15.8 5.46C15.8 5.63 15.94 5.77 16.12 5.77ZM16.12 5.86C15.89 5.86 15.7 5.68 15.7 5.46C15.7 5.24 15.89 5.06 16.12 5.06C16.35 5.06 16.54 5.24 16.54 5.46C16.54 5.68 16.35 5.86 16.12 5.86ZM16.12 4.64C16.3 4.64 16.44 4.5 16.44 4.33C16.44 4.16 16.3 4.02 16.12 4.02C15.94 4.02 15.8 4.16 15.8 4.33C15.8 4.5 15.94 4.64 16.12 4.64ZM16.12 4.72C15.89 4.72 15.7 4.54 15.7 4.32C15.7 4.1 15.89 3.92 16.12 3.92C16.35 3.92 16.54 4.1 16.54 4.32C16.54 4.55 16.35 4.72 16.12 4.72ZM15.1 3.66C15.28 3.66 15.42 3.52 15.42 3.35C15.4146 3.17719 15.2729 3.03992 15.1 3.04C14.92 3.04 14.77 3.18 14.77 3.35C14.77 3.53 14.92 3.66 15.1 3.66ZM15.1 3.76C14.87 3.76 14.68 3.58 14.68 3.36C14.68 3.14 14.87 2.96 15.1 2.96C15.33 2.96 15.52 3.14 15.52 3.36C15.51 3.58 15.33 3.76 15.1 3.76ZM25.64 10.27C25.3601 10.1212 25.0127 10.2179 24.85 10.49C24.7 10.76 24.8 11.1 25.08 11.25C25.36 11.4 25.71 11.3 25.87 11.03C26.03 10.76 25.93 10.42 25.64 10.27ZM25.69 10.19C26.02 10.36 26.13 10.76 25.95 11.07C25.7628 11.3895 25.3568 11.5042 25.03 11.33C24.8749 11.2517 24.7591 11.1128 24.7099 10.9462C24.6606 10.7796 24.6824 10.6 24.77 10.45C24.9572 10.1305 25.3632 10.0158 25.69 10.19ZM7.98 10.41C7.89 10.19 7.78 10.02 7.54 9.95C7.7 8.02 8.21 7.14 10.02 6.26C10.18 6.32 10.17 6.34 10.17 6.36C10.17 6.62 10.32 6.75 10.51 6.89C10.19 6.96 9.9 7.1 9.9 7.48C9.9 7.79 10.12 7.96 10.4 8.04C10.31 8.21 10.29 8.28 10.31 8.48C9.94 8.65 9.86 8.88 9.95 9.24C10.09 9.75 10.41 9.81 10.92 9.68C10.9766 10.0072 10.7988 10.33 10.492 10.457C10.1852 10.5841 9.83128 10.4815 9.64 10.21C9.64 10.16 9.63 10.12 9.62 10.07C9.54 9.78 9.22 9.6 8.9 9.67C8.59 9.75 8.39 10.06 8.47 10.36C8.5 10.46 8.55 10.54 8.62 10.61C8.65 10.9 8.52 11.16 8.26 11.3C7.99 11.44 7.78 11.38 7.52 11.29C7.95 11.09 8.17 10.9 7.98 10.41ZM8.01 8.32C7.83 8.75 7.74 9.25 7.68 9.86C7.89 9.95 8.03 10.16 8.11 10.37C8.24 10.69 8.24 11.02 7.88 11.27C7.99 11.28 8.09 11.26 8.19 11.2C8.39 11.09 8.5 10.89 8.49 10.68C8.42084 10.5983 8.36972 10.5029 8.34 10.4C8.24 10.02 8.48 9.64 8.86 9.55C9.25 9.45 9.64 9.68 9.75 10.05C9.76 10.09 9.77 10.13 9.77 10.17C10.1 10.56 10.76 10.36 10.79 9.85C10.18 9.97 9.92 9.67 9.82 9.27C9.73 8.94 9.77 8.6 10.16 8.4C10.16 8.29 10.17 8.2 10.2 8.12C9.98375 8.03062 9.82625 7.83937 9.78 7.61C9.43 7.68 9.04 7.78 8.72 7.91C8.41 8.02 8.18 8.18 8.01 8.32ZM10.03 6.4C9.02 6.91 8.43 7.43 8.08 8.15C8.26 8.02 8.46 7.91 8.68 7.83C9.01 7.7 9.41 7.6 9.76 7.53L9.76 7.48C9.76 7.19 9.95 6.93 10.21 6.83C10.1027 6.7114 10.0392 6.55967 10.03 6.4ZM23.98 11.31C23.7289 11.1765 23.5859 10.9023 23.62 10.62C23.69 10.55 23.74 10.47 23.77 10.37C23.8061 10.2228 23.7821 10.0672 23.7033 9.93776C23.6245 9.80828 23.4974 9.71552 23.35 9.68C23.1765 9.63428 22.9917 9.66997 22.8477 9.77699C22.7037 9.884 22.6162 10.0507 22.61 10.23C22.16 10.8 21.25 10.5 21.33 9.7C21.84 9.82 22.16 9.77 22.3 9.26C22.4 8.9 22.31 8.67 21.95 8.5C21.96 8.3 21.95 8.23 21.86 8.06C22.14 7.98 22.36 7.81 22.36 7.5C22.36 7.12 22.07 6.98 21.75 6.92C21.94 6.77 22.1 6.65 22.1 6.39C22.1 6.37 22.1 6.34 22.09 6.32L22.22 6.28C24.02 7.15 24.57 8.06 24.73 9.97C24.48 10.04 24.37 10.21 24.29 10.43C24.1 10.92 24.32 11.11 24.75 11.32C24.46 11.39 24.25 11.45 23.98 11.31ZM22.47 7.61C22.42 7.84 22.26 8.03 22.04 8.12C22.07 8.2 22.09 8.3 22.08 8.4C22.48 8.6 22.51 8.94 22.42 9.27C22.31 9.67 22.06 9.97 21.45 9.85C21.48 10.36 22.14 10.56 22.47 10.17C22.47 10.13 22.48 10.09 22.49 10.05C22.59 9.68 22.99 9.45 23.37 9.55C23.76 9.65 23.99 10.03 23.89 10.4C23.86 10.5 23.81 10.6 23.74 10.67C23.72 11.01 24.01 11.28 24.35 11.26C23.99 11.02 23.99 10.69 24.12 10.36C24.2 10.15 24.33 9.94 24.55 9.85C24.5 9.24 24.4 8.74 24.22 8.31C24.05 8.17 23.81 8.01 23.51 7.9C23.21 7.79 22.81 7.69 22.47 7.61ZM22.21 6.38C22.2 6.55 22.13 6.71 22.02 6.82C22.29 6.92 22.48 7.17 22.48 7.47L22.48 7.52C22.84 7.6 23.22 7.69 23.56 7.82C23.8 7.91 24 8.02 24.16 8.14C23.81 7.43 23.22 6.91 22.21 6.38ZM20.11 12.4L19.09 11.71L20.33 11.58L21.35 12.27L20.11 12.4ZM18.19 12C17.96 12 17.78 11.82 17.78 11.6C17.78 11.38 17.97 11.2 18.19 11.2C18.42 11.2 18.61 11.38 18.61 11.6C18.61 11.82 18.42 12 18.19 12ZM18.19 11.91C18.37 11.91 18.51 11.77 18.51 11.6C18.51 11.43 18.37 11.29 18.19 11.29C18.01 11.29 17.87 11.43 17.87 11.6C17.87 11.77 18.02 11.91 18.19 11.91ZM10.05 12.95C10.23 12.95 10.37 12.81 10.37 12.64C10.37 12.47 10.23 12.33 10.05 12.33C9.87 12.33 9.73 12.47 9.73 12.64C9.73 12.81 9.87 12.95 10.05 12.95ZM10.05 13.04C9.82 13.04 9.63 12.86 9.63 12.64C9.63 12.42 9.82 12.24 10.05 12.24C10.28 12.24 10.47 12.42 10.47 12.64C10.46 12.86 10.28 13.04 10.05 13.04ZM14.05 11.91C14.23 11.91 14.37 11.77 14.37 11.6C14.3646 11.4272 14.2229 11.2899 14.05 11.29C13.87 11.29 13.73 11.43 13.73 11.6C13.72 11.77 13.87 11.91 14.05 11.91ZM14.05 12C13.82 12 13.63 11.82 13.63 11.6C13.63 11.38 13.82 11.2 14.05 11.2C14.28 11.2 14.47 11.38 14.47 11.6C14.46 11.82 14.28 12 14.05 12ZM22.19 12.95C22.37 12.95 22.51 12.81 22.51 12.64C22.51 12.47 22.37 12.33 22.19 12.33C22.01 12.33 21.87 12.47 21.87 12.64C21.87 12.81 22.01 12.95 22.19 12.95ZM22.19 13.04C21.96 13.04 21.77 12.86 21.77 12.64C21.77 12.42 21.96 12.24 22.19 12.24C22.42 12.24 22.61 12.42 22.61 12.64C22.61 12.86 22.42 13.04 22.19 13.04ZM12.13 12.4L10.89 12.27L11.91 11.58L13.15 11.71L12.13 12.4ZM17.16 11.49L16.12 11.12L15.09 11.49L16.12 11.86L17.16 11.49ZM17.42 11.49L16.12 11.96L14.82 11.49L16.12 11.02L17.42 11.49Z" fill-rule="nonzero" opacity="1" stroke="none"/>
</g>
</svg>
