<?xml version="1.0" standalone="no"?>
<!DOCTYPE svg PUBLIC "-//W3C//DTD SVG 20010904//EN"
 "http://www.w3.org/TR/2001/REC-SVG-20010904/DTD/svg10.dtd">
<svg version="1.0" xmlns="http://www.w3.org/2000/svg"
 width="688.000000pt" height="688.000000pt" viewBox="0 0 688.000000 688.000000"
 preserveAspectRatio="xMidYMid meet">
<metadata>
Created by potrace 1.14, written by Peter Selinger 2001-2017
</metadata>
<g transform="translate(0.000000,688.000000) scale(0.100000,-0.100000)"
fill="#000000" stroke="none">
<path d="M3400 6691 c0 -27 -3 -30 -37 -33 -38 -3 -38 -3 -38 -48 0 -45 0 -45
38 -48 33 -3 37 -6 37 -31 0 -36 -63 -81 -112 -81 -18 0 -48 -9 -65 -20 -27
-16 -38 -18 -60 -9 -40 15 -88 3 -121 -31 -25 -24 -35 -28 -68 -24 -50 6 -100
-23 -120 -72 -12 -28 -20 -35 -35 -31 -57 15 -129 -40 -129 -100 0 -26 -5 -30
-46 -41 -38 -10 -49 -10 -67 3 -12 8 -41 15 -65 15 -36 0 -50 -6 -77 -33 -29
-29 -37 -32 -79 -29 -42 4 -49 1 -81 -31 -19 -19 -35 -42 -35 -51 0 -10 -9
-16 -25 -16 -67 0 -125 -53 -125 -113 0 -19 -7 -26 -31 -31 -17 -3 -44 -19
-60 -35 -24 -25 -29 -37 -29 -80 0 -37 -4 -51 -14 -51 -8 0 -26 -14 -40 -31
-28 -33 -34 -85 -16 -120 9 -16 6 -25 -20 -50 -26 -26 -30 -38 -30 -84 0 -33
-5 -57 -14 -64 -19 -16 -26 -58 -15 -95 6 -19 5 -43 -2 -64 -23 -70 63 -172
146 -172 17 0 36 4 43 9 9 5 33 1 63 -10 27 -11 65 -19 83 -19 28 0 35 -4 38
-22 2 -14 15 -29 35 -38 17 -8 34 -25 38 -37 3 -13 10 -23 16 -23 7 0 8 -14 4
-38 -5 -34 -3 -39 25 -55 23 -14 30 -25 30 -48 0 -17 6 -32 15 -36 9 -3 73 17
143 45 610 244 1307 242 1921 -5 123 -50 143 -50 149 1 2 17 14 31 34 42 27
14 30 20 25 49 -4 23 -1 38 9 46 8 6 14 20 14 30 0 11 9 19 22 21 13 2 32 17
43 35 15 25 27 32 51 33 17 0 49 6 70 14 23 8 62 11 94 9 46 -4 61 -1 90 19
53 36 83 86 76 128 -9 49 -9 60 -1 103 6 31 4 44 -14 68 -15 20 -20 36 -15 54
9 38 -4 75 -38 107 -21 20 -27 32 -21 41 32 40 16 107 -33 146 -23 18 -28 30
-29 66 -1 53 -31 90 -85 106 -32 10 -37 16 -38 41 0 16 -8 41 -17 55 -19 29
-79 57 -107 50 -12 -4 -21 1 -25 11 -21 67 -60 95 -125 91 -31 -3 -43 1 -56
18 -9 11 -27 26 -39 32 -31 16 -95 14 -121 -4 -18 -13 -28 -14 -59 -5 -33 10
-40 18 -53 58 -18 56 -55 85 -108 85 -36 0 -41 3 -56 37 -21 48 -72 75 -123
65 -29 -5 -37 -2 -54 19 -28 35 -80 51 -124 36 -31 -10 -38 -9 -61 9 -16 13
-41 21 -64 21 -55 0 -120 44 -120 82 0 26 3 28 41 28 l40 0 -3 48 c-3 47 -3
47 -40 50 -35 3 -38 6 -38 33 0 29 -1 29 -55 29 -54 0 -55 0 -55 -29z m80 -26
c0 -34 1 -35 40 -35 36 0 40 -2 40 -25 0 -22 -4 -25 -40 -25 l-40 0 0 -50 c0
-46 3 -51 27 -61 16 -6 36 -18 46 -27 11 -9 36 -16 64 -17 37 0 49 -6 68 -29
22 -27 24 -28 46 -12 36 25 86 21 114 -10 14 -15 25 -34 25 -42 0 -10 6 -12
23 -7 63 20 86 18 117 -13 21 -21 30 -40 30 -62 0 -27 3 -31 18 -24 9 4 34 8
56 8 54 0 90 -41 83 -96 l-5 -38 37 0 c20 0 47 -7 59 -16 22 -15 25 -15 45 4
49 46 125 32 145 -27 11 -30 11 -30 41 -15 61 30 131 -15 131 -84 0 -29 2 -32
19 -22 35 18 71 11 103 -21 27 -27 30 -35 25 -72 l-6 -42 39 3 c32 3 44 -1 65
-23 26 -25 30 -60 14 -114 -2 -8 7 -17 25 -22 69 -19 89 -88 40 -140 l-26 -27
37 -12 c47 -16 75 -66 57 -106 -11 -22 -9 -29 13 -56 29 -35 31 -48 9 -90 -16
-31 -17 -31 -28 -10 -52 97 -206 60 -206 -49 0 -76 80 -128 151 -98 36 14 69
62 69 99 1 24 1 25 16 5 49 -64 -62 -173 -147 -143 -24 8 -38 7 -69 -7 -25
-11 -56 -16 -94 -13 l-55 3 2 -28 c1 -20 -5 -33 -18 -42 -17 -12 -31 -9 -105
21 -408 167 -767 233 -1209 221 -360 -9 -657 -70 -976 -198 -72 -29 -139 -52
-149 -51 -26 1 -38 21 -32 53 5 25 4 25 -53 21 -40 -3 -67 1 -88 11 -21 12
-45 14 -85 10 -43 -4 -63 -1 -85 12 -54 32 -77 93 -51 134 9 15 9 25 0 46 -17
37 -15 69 8 97 14 19 18 34 14 60 -8 44 8 73 49 94 18 9 34 18 35 19 2 2 -6
13 -17 24 -48 48 -34 114 29 138 33 13 38 19 30 34 -33 60 10 129 80 129 l40
0 -6 40 c-6 35 -3 43 25 71 28 28 37 31 75 27 l44 -5 6 38 c10 66 71 94 137
65 12 -5 20 1 29 24 15 37 37 50 85 50 24 0 43 -8 59 -23 23 -23 24 -23 47 -6
14 10 41 19 62 19 26 0 36 4 31 11 -14 23 -5 72 17 95 24 26 75 32 110 14 16
-9 19 -7 19 15 0 33 24 81 45 89 25 9 74 7 95 -4 16 -9 22 -5 35 20 8 16 24
34 34 40 28 14 84 12 106 -4 17 -12 22 -11 46 15 20 22 36 29 64 29 20 0 49 8
63 19 15 10 37 22 50 25 19 6 22 14 22 57 l0 49 -40 0 c-36 0 -40 3 -40 25 0
23 4 25 40 25 39 0 40 1 40 35 0 32 2 35 30 35 28 0 30 -3 30 -35z m1500
-1430 c58 -30 67 -90 21 -136 -38 -38 -87 -39 -125 -4 -34 32 -36 92 -3 122
39 36 65 40 107 18z m-1103 -124 c72 -11 188 -34 257 -51 186 -45 485 -152
493 -176 2 -5 -22 -18 -52 -29 -30 -10 -55 -20 -55 -23 0 -2 7 -31 16 -64 8
-33 13 -63 10 -65 -3 -3 -64 17 -135 45 -612 242 -1297 240 -1919 -4 -105 -42
-146 -49 -124 -21 5 7 12 29 16 50 4 21 9 44 12 51 3 7 -17 19 -51 30 -30 11
-55 23 -55 28 0 24 364 151 550 192 105 23 277 49 390 60 121 11 519 -3 647
-23z"/>
<path d="M3250 6390 c-11 -11 -20 -33 -20 -48 0 -62 80 -85 119 -35 50 62 -43
139 -99 83z m84 -19 c22 -24 13 -59 -17 -70 -51 -19 -90 22 -62 65 19 29 55
31 79 5z"/>
<path d="M3582 6394 c-28 -19 -30 -74 -4 -97 25 -22 75 -21 95 1 25 27 22 78
-5 96 -12 9 -32 16 -43 16 -11 0 -31 -7 -43 -16z m76 -16 c30 -30 -7 -95 -47
-81 -20 7 -41 32 -41 49 0 35 62 58 88 32z"/>
<path d="M3082 6364 c-15 -10 -22 -25 -22 -49 0 -63 80 -89 119 -39 12 15 21
32 21 39 0 7 -9 24 -21 39 -24 30 -63 34 -97 10z m89 -25 c17 -33 -3 -69 -39
-69 -33 0 -52 16 -52 45 0 29 19 45 52 45 18 0 31 -7 39 -21z"/>
<path d="M3741 6354 c-12 -15 -21 -32 -21 -39 0 -7 9 -24 21 -39 38 -48 119
-22 119 39 0 61 -81 87 -119 39z m87 -6 c7 -7 12 -21 12 -33 0 -29 -19 -45
-52 -45 -36 0 -56 36 -39 69 13 23 59 29 79 9z"/>
<path d="M2910 6298 c-25 -28 -25 -48 1 -82 38 -48 119 -22 119 39 0 58 -79
87 -120 43z m98 -37 c8 -51 -68 -74 -90 -27 -13 31 -5 54 24 65 29 11 62 -8
66 -38z"/>
<path d="M3907 6302 c-37 -41 -6 -112 48 -112 28 0 75 40 75 63 0 8 -9 26 -21
41 -25 32 -77 36 -102 8z m94 -24 c15 -27 2 -57 -28 -64 -34 -9 -57 6 -61 39
-6 49 65 70 89 25z"/>
<path d="M3430 6247 c-14 -7 -30 -28 -37 -47 -9 -27 -12 -30 -12 -12 -1 21 -5
22 -79 22 -281 0 -524 -201 -587 -484 l-17 -75 36 -35 c19 -20 44 -36 55 -36
54 0 104 -96 78 -150 -7 -14 -32 -35 -57 -46 l-44 -22 36 -36 c28 -28 44 -36
72 -36 84 0 131 57 112 137 -17 73 55 129 127 99 37 -15 64 -67 51 -99 -4 -11
6 -29 29 -52 29 -29 42 -35 79 -35 24 0 54 7 66 16 19 13 52 63 52 78 0 3 -19
9 -42 12 -59 10 -88 42 -88 97 0 50 26 91 62 100 14 4 28 19 35 36 10 28 25
39 77 55 18 6 18 7 2 19 -16 12 -14 13 17 9 28 -3 38 1 56 23 26 35 27 55 1
83 -25 27 -73 29 -97 4 -17 -16 -18 -14 -18 45 l0 62 21 -20 c39 -37 87 -20
114 41 l11 25 -6 -25 c-15 -62 -17 -112 -5 -140 17 -41 6 -74 -32 -98 -29 -19
-31 -22 -13 -27 44 -14 71 -32 83 -59 8 -15 27 -32 43 -38 38 -13 49 -35 49
-97 0 -59 -24 -84 -89 -95 -39 -6 -40 -6 -29 -36 16 -46 53 -70 109 -70 40 0
52 5 78 31 24 24 31 39 31 69 0 58 35 95 90 95 34 0 47 -6 67 -29 22 -26 24
-34 18 -88 -7 -57 -6 -59 28 -93 38 -38 82 -46 131 -23 36 16 63 58 45 69 -8
5 -19 9 -25 9 -6 0 -23 9 -38 21 -54 43 -22 161 48 174 18 4 43 18 55 31 11
13 25 24 31 24 28 0 -12 167 -63 265 -18 35 -63 92 -107 136 -116 118 -261
179 -420 179 l-76 0 -13 -45 c-7 -25 -11 -65 -9 -89 5 -42 5 -43 -13 -25 -22
22 -67 25 -92 6 -10 -6 -22 -26 -27 -42 l-10 -30 6 30 c4 17 7 55 8 86 l1 57
24 -19 c32 -26 57 -24 86 6 29 28 32 55 8 83 -24 27 -53 34 -83 19z m60 -25
c46 -37 -9 -106 -59 -75 -26 16 -26 59 1 77 28 20 31 20 58 -2z m-128 -54 c1
-13 2 -75 3 -138 l1 -115 -151 -1 c-162 -1 -257 -16 -373 -60 -36 -13 -67 -22
-70 -19 -11 11 67 124 129 186 103 105 250 166 402 168 52 1 57 -1 59 -21z
m440 -12 c136 -48 262 -155 324 -278 13 -26 23 -48 20 -48 -2 0 -33 11 -68 24
-117 44 -211 59 -374 60 l-150 1 -2 95 c0 52 1 115 4 139 l6 44 83 -6 c50 -4
114 -16 157 -31z m-311 -115 c20 -16 22 -23 14 -47 -18 -52 -95 -42 -95 12 0
20 32 54 51 54 4 0 17 -9 30 -19z m7 -183 c7 -7 12 -21 12 -33 0 -28 -19 -45
-50 -45 -31 0 -50 17 -50 45 0 28 19 45 50 45 14 0 31 -5 38 -12z m-93 -80 c3
-7 -1 -4 -9 6 -9 11 -16 29 -15 40 1 17 2 16 9 -6 4 -14 11 -32 15 -40z"/>
<path d="M2755 6195 c-30 -29 -31 -45 -4 -79 39 -50 119 -26 119 37 0 34 -32
67 -65 67 -14 0 -37 -11 -50 -25z m83 -7 c30 -30 -7 -95 -47 -81 -20 7 -41 32
-41 49 0 35 62 58 88 32z"/>
<path d="M4072 6204 c-28 -19 -30 -74 -4 -97 25 -23 75 -21 97 3 54 60 -25
142 -93 94z m88 -23 c28 -54 -49 -99 -84 -50 -15 22 -11 48 8 61 22 15 65 8
76 -11z"/>
<path d="M2470 6080 c-42 -42 -14 -110 46 -110 35 0 47 8 63 37 16 31 14 41
-14 68 -29 30 -68 32 -95 5z m84 -19 c35 -39 -16 -97 -63 -72 -23 13 -29 59
-9 79 18 18 53 14 72 -7z"/>
<path d="M4351 6074 c-26 -33 -27 -58 -1 -84 41 -41 120 -12 120 45 0 61 -81
87 -119 39z m87 -6 c20 -20 14 -56 -13 -74 -23 -15 -27 -15 -50 0 -27 18 -31
36 -15 67 12 22 59 26 78 7z"/>
<path d="M2650 6077 c-36 -18 -48 -59 -27 -91 36 -55 118 -35 125 30 5 50 -51
84 -98 61z m65 -23 c43 -43 -19 -110 -65 -69 -24 22 -25 42 -3 67 20 22 46 23
68 2z"/>
<path d="M4196 6069 c-46 -36 -30 -100 29 -115 74 -18 113 86 44 121 -36 19
-41 19 -73 -6z m83 -31 c14 -24 14 -28 -3 -47 -36 -39 -86 -21 -86 31 0 51 63
63 89 16z"/>
<path d="M2317 6029 c-45 -26 -39 -96 9 -118 41 -18 94 14 94 58 0 32 -8 44
-37 60 -26 14 -42 14 -66 0z m71 -21 c7 -7 12 -25 12 -40 0 -55 -78 -61 -95
-7 -13 41 52 78 83 47z"/>
<path d="M4527 6029 c-44 -26 -37 -103 11 -116 34 -9 52 -5 75 14 20 19 22 62
5 86 -16 21 -68 31 -91 16z m78 -33 c28 -43 -18 -91 -63 -67 -28 15 -35 40
-17 67 21 32 60 31 80 0z"/>
<path d="M2151 5904 c-12 -15 -21 -32 -21 -39 0 -7 9 -24 21 -39 40 -50 119
-22 119 43 0 59 -81 83 -119 35z m87 -6 c7 -7 12 -21 12 -33 0 -29 -19 -45
-52 -45 -36 0 -56 36 -39 69 13 23 59 29 79 9z"/>
<path d="M2555 5905 c-14 -13 -25 -33 -25 -45 0 -54 93 -83 124 -38 22 32 20
61 -7 86 -30 29 -62 28 -92 -3z m83 -7 c20 -20 14 -56 -13 -74 -23 -15 -27
-15 -50 0 -14 9 -25 25 -25 36 0 40 60 66 88 38z"/>
<path d="M4272 5907 c-44 -46 -17 -107 46 -107 37 0 72 30 72 60 0 28 -44 70
-73 70 -13 0 -33 -10 -45 -23z m82 -13 c23 -23 20 -51 -9 -70 -23 -15 -27 -15
-50 0 -27 18 -33 54 -13 74 17 17 54 15 72 -4z"/>
<path d="M4667 5912 c-25 -27 -22 -78 5 -96 68 -48 147 34 93 94 -23 25 -76
26 -98 2z m93 -23 c15 -28 -11 -69 -45 -69 -43 0 -65 59 -31 82 22 15 65 8 76
-13z"/>
<path d="M2386 5828 c-185 -110 -272 -251 -293 -471 -5 -62 -4 -69 16 -83 28
-20 52 -68 53 -107 1 -24 -7 -38 -35 -62 -20 -18 -34 -35 -30 -38 3 -4 26 -7
51 -7 37 0 50 6 78 34 37 37 42 64 20 117 -12 29 -12 39 -1 66 32 76 138 71
169 -7 20 -50 50 -70 104 -70 37 0 50 6 78 34 24 24 34 43 34 65 0 30 0 31
-51 29 -66 -1 -99 28 -106 96 -5 41 -3 48 24 73 31 29 54 103 33 103 -6 0 -22
11 -35 25 -47 47 -25 124 40 141 14 3 25 8 25 10 0 1 -11 15 -24 29 -14 15
-26 36 -28 48 -5 35 -29 30 -122 -25z m111 -8 c10 -27 9 -33 -18 -59 -16 -17
-32 -43 -35 -59 -5 -27 -12 -30 -80 -46 -41 -10 -100 -30 -130 -45 -29 -16
-54 -25 -54 -20 0 14 78 110 116 143 46 39 164 116 179 116 6 0 16 -14 22 -30z"/>
<path d="M4422 5868 c-7 -7 -12 -19 -12 -29 0 -9 -11 -27 -25 -41 l-24 -24 39
-18 c70 -31 75 -117 8 -152 -24 -12 -27 -18 -21 -47 3 -17 19 -44 34 -59 35
-33 39 -87 9 -135 -22 -37 -54 -48 -106 -38 l-37 6 6 -37 c9 -55 56 -99 105
-99 49 0 88 26 106 69 42 100 176 83 176 -23 0 -22 -4 -43 -10 -46 -5 -3 -10
-21 -10 -40 0 -39 48 -94 83 -97 28 -1 81 3 86 7 2 2 -13 18 -33 35 -26 23
-36 40 -36 61 0 40 35 106 60 114 19 6 21 12 14 63 -17 142 -64 268 -129 348
-68 82 -259 206 -283 182z m109 -66 c74 -49 174 -145 198 -191 11 -20 11 -23
0 -18 -99 43 -143 59 -190 69 -54 11 -58 14 -68 49 -6 21 -22 47 -36 57 -22
18 -23 22 -12 51 6 17 17 31 23 31 6 0 45 -22 85 -48z"/>
<path d="M2030 5770 c-11 -11 -20 -30 -20 -43 0 -30 39 -67 71 -67 31 0 69 38
69 68 0 31 -35 62 -70 62 -17 0 -39 -9 -50 -20z m78 -6 c41 -29 23 -84 -28
-84 -32 0 -50 17 -50 46 0 20 32 54 50 54 3 0 16 -7 28 -16z"/>
<path d="M4790 5770 c-41 -41 -10 -110 49 -110 32 0 71 39 71 69 0 52 -81 80
-120 41z m81 -9 c20 -16 22 -23 14 -47 -18 -52 -95 -42 -95 12 0 20 32 54 51
54 4 0 17 -9 30 -19z"/>
<path d="M2512 5727 c-27 -29 -28 -61 -2 -87 20 -20 65 -26 86 -12 13 9 34 46
34 62 0 20 -49 60 -73 60 -13 0 -33 -10 -45 -23z m82 -13 c23 -23 20 -51 -9
-70 -23 -15 -27 -15 -50 0 -27 18 -33 54 -13 74 17 17 54 15 72 -4z"/>
<path d="M4315 5725 c-14 -13 -25 -33 -25 -45 0 -54 93 -83 124 -38 22 31 20
64 -4 88 -27 27 -66 25 -95 -5z m83 -7 c20 -20 14 -56 -13 -74 -23 -15 -27
-15 -50 0 -14 9 -25 25 -25 36 0 40 60 66 88 38z"/>
<path d="M3394 5652 c-52 -41 -58 -106 -16 -152 38 -43 94 -50 142 -18 59 40
65 110 14 161 -21 22 -36 27 -73 27 -28 0 -54 -7 -67 -18z m134 -28 c33 -38
30 -86 -9 -118 -35 -29 -67 -33 -108 -11 -31 16 -41 33 -41 74 0 81 103 118
158 55z"/>
<path d="M1972 5630 c-53 -22 -46 -104 12 -123 66 -22 115 69 60 112 -29 23
-38 24 -72 11z m59 -20 c30 -16 26 -67 -7 -82 -47 -22 -89 23 -61 66 19 28 37
32 68 16z"/>
<path d="M4876 5619 c-61 -48 -7 -139 65 -109 50 21 52 96 4 118 -34 16 -38
15 -69 -9z m74 -19 c11 -11 20 -23 20 -28 0 -20 -34 -52 -55 -52 -21 0 -55 32
-55 52 0 14 39 48 55 48 8 0 24 -9 35 -20z"/>
<path d="M2624 5570 c-60 -24 -83 -113 -44 -163 24 -30 80 -51 112 -42 34 11
76 54 83 86 17 77 -75 150 -151 119z m107 -36 c63 -57 -2 -171 -86 -150 -80
20 -97 126 -25 164 30 15 86 9 111 -14z"/>
<path d="M4203 5564 c-39 -19 -67 -74 -58 -113 7 -34 50 -76 87 -85 35 -8 90
14 112 45 20 30 21 88 0 117 -17 25 -65 52 -91 52 -10 0 -32 -8 -50 -16z m96
-19 c16 -8 34 -28 41 -45 38 -91 -98 -162 -160 -83 -29 37 -26 79 9 114 33 32
67 37 110 14z"/>
<path d="M1915 5435 c-30 -29 -32 -55 -7 -86 38 -45 122 -16 122 43 0 25 -44
68 -70 68 -11 0 -32 -11 -45 -25z m79 -11 c21 -20 20 -43 -1 -66 -20 -22 -46
-23 -67 -2 -31 30 -9 84 34 84 10 0 26 -7 34 -16z"/>
<path d="M4916 5439 c-51 -40 -24 -109 42 -109 37 0 72 30 72 60 0 26 -43 70
-68 70 -11 0 -31 -9 -46 -21z m79 -15 c22 -23 15 -56 -17 -73 -24 -14 -28 -14
-47 3 -23 21 -27 56 -9 74 17 17 54 15 73 -4z"/>
<path d="M3440 5399 c0 -12 -20 -41 -45 -67 -25 -24 -45 -49 -45 -53 0 -5 50
-9 110 -9 118 0 137 10 81 41 -15 9 -38 37 -50 63 -24 48 -51 61 -51 25z"/>
<path d="M3049 5338 c-6 -13 -25 -38 -42 -56 -19 -19 -27 -35 -21 -41 10 -10
214 16 227 28 5 5 -12 20 -36 34 -25 15 -47 33 -51 42 -9 24 -63 19 -77 -7z"/>
<path d="M3779 5334 c-13 -14 -37 -33 -53 -41 -41 -21 -23 -32 75 -43 46 -6
96 -13 112 -16 35 -7 36 14 1 47 -14 13 -32 36 -40 52 -19 36 -61 37 -95 1z"/>
<path d="M2690 5297 c0 -20 -12 -52 -30 -80 -21 -33 -26 -49 -17 -52 18 -7
200 40 204 52 2 6 -12 16 -31 23 -20 6 -51 29 -69 51 -41 48 -57 49 -57 6z"/>
<path d="M4178 5296 c-15 -19 -46 -42 -68 -52 -22 -10 -39 -22 -37 -28 4 -12
187 -58 206 -51 11 5 11 8 -1 23 -27 30 -48 80 -48 112 0 40 -18 38 -52 -4z"/>
<path d="M1953 5263 c-29 -6 -71 -46 -79 -77 -19 -76 56 -151 132 -132 41 11
84 59 84 96 0 76 -61 127 -137 113z m94 -45 c26 -24 31 -82 10 -109 -17 -22
-51 -39 -81 -39 -39 0 -86 46 -86 84 0 84 95 123 157 64z"/>
<path d="M2375 5170 c-3 -5 -14 -10 -23 -10 -17 0 -76 -106 -67 -120 8 -12
215 71 215 87 0 7 -8 13 -18 13 -10 0 -35 9 -57 20 -46 23 -42 23 -50 10z"/>
<path d="M4504 5163 c-9 -7 -33 -16 -51 -19 -22 -4 -33 -11 -31 -21 3 -16 199
-94 210 -84 4 3 -5 31 -20 62 -20 44 -33 57 -58 65 -24 8 -36 7 -50 -3z"/>
<path d="M3358 5083 c-54 -19 -98 -38 -98 -42 0 -3 45 -22 100 -41 l100 -35
100 35 c55 19 100 38 100 41 0 5 -141 59 -195 75 -5 2 -54 -13 -107 -33z"/>
<path d="M3080 5070 c-41 -41 -10 -110 49 -110 20 0 36 9 50 26 27 34 26 50
-4 79 -29 30 -68 32 -95 5z m91 -21 c14 -27 -1 -64 -30 -72 -44 -11 -81 49
-49 81 20 20 66 14 79 -9z"/>
<path d="M3741 5064 c-12 -15 -21 -31 -21 -36 0 -14 21 -52 34 -60 21 -14 66
-8 86 12 27 27 25 62 -3 88 -32 30 -71 28 -96 -4z m87 -6 c20 -20 14 -56 -13
-74 -23 -15 -27 -15 -50 0 -44 29 -28 86 25 86 14 0 31 -5 38 -12z"/>
<path d="M2707 4978 c-42 -29 -77 -56 -77 -60 0 -6 176 -24 193 -20 5 2 43 26
85 54 l77 52 -35 7 c-19 4 -64 9 -100 13 l-66 6 -77 -52z"/>
<path d="M4021 5019 c-41 -5 -76 -11 -78 -13 -5 -4 137 -103 154 -108 17 -4
193 14 193 20 -1 13 -160 112 -177 111 -10 -1 -51 -5 -92 -10z"/>
<path d="M2436 4901 c-24 -26 -17 -70 16 -94 66 -49 141 39 82 98 -22 21 -77
19 -98 -4z m84 -9 c46 -37 -9 -106 -59 -75 -22 14 -25 57 -6 77 21 21 38 20
65 -2z"/>
<path d="M4380 4900 c-27 -27 -25 -56 5 -85 30 -30 54 -31 89 -4 48 38 20 109
-44 109 -17 0 -39 -9 -50 -20z m78 -6 c12 -8 22 -26 22 -38 0 -54 -77 -64 -95
-12 -8 24 -6 31 14 47 28 23 31 23 59 3z"/>
<path d="M3305 4860 c-864 -52 -1643 -548 -2039 -1300 -261 -497 -331 -1061
-200 -1615 76 -319 242 -652 459 -920 90 -112 282 -299 395 -387 361 -279 784
-451 1255 -509 145 -18 454 -15 605 5 1104 148 1953 965 2116 2036 25 158 24
482 0 638 -63 404 -210 757 -447 1072 -500 664 -1301 1030 -2144 980z m439
-85 c542 -63 1052 -309 1431 -690 296 -297 501 -655 601 -1053 47 -186 65
-336 66 -542 0 -261 -30 -453 -112 -703 -212 -643 -716 -1169 -1370 -1430
-474 -189 -1031 -221 -1536 -88 -827 219 -1488 879 -1685 1685 -46 189 -62
330 -63 531 0 196 12 309 50 483 140 634 554 1184 1140 1515 261 147 616 261
924 296 126 14 416 12 554 -4z"/>
<path d="M3198 4556 c-646 -83 -1216 -433 -1560 -958 -393 -600 -442 -1352
-129 -1992 270 -551 788 -973 1383 -1125 196 -50 290 -63 509 -68 322 -8 581
35 855 142 1097 429 1637 1615 1218 2675 -275 692 -917 1196 -1680 1316 -138
21 -461 27 -596 10z m567 -81 c457 -68 842 -258 1169 -575 185 -180 300 -338
411 -565 133 -273 195 -542 195 -847 0 -1017 -785 -1870 -1840 -1998 -109 -13
-371 -13 -480 0 -666 81 -1245 454 -1576 1016 -128 217 -213 462 -249 715 -19
138 -19 403 1 538 75 514 344 971 764 1298 302 235 707 395 1096 432 127 12
381 5 509 -14z"/>
<path d="M2402 4166 c-273 -162 -528 -411 -694 -679 -114 -183 -205 -415 -250
-638 -20 -101 -23 -142 -23 -359 1 -216 4 -258 23 -350 49 -224 139 -445 259
-630 60 -92 175 -240 217 -280 l27 -24 141 141 142 142 -50 53 c-162 171 -288
407 -345 644 -54 228 -42 492 35 754 28 95 25 96 132 -11 l96 -96 -18 -79
c-24 -108 -24 -348 0 -459 78 -360 280 -660 583 -863 84 -57 244 -134 337
-163 l76 -24 0 -167 0 -168 200 0 200 0 0 144 0 143 103 12 c56 6 112 14 125
18 20 5 61 -32 293 -263 l269 -268 78 38 c569 279 963 783 1094 1396 20 92 22
135 23 355 0 223 -3 262 -23 365 -60 296 -187 575 -371 815 -145 190 -402 410
-618 531 l-53 29 -238 -238 -239 -239 -69 21 c-258 76 -573 76 -828 0 l-69
-21 -236 236 -236 236 -93 -54z m315 -268 l232 -232 88 27 c152 46 255 60 418
60 164 0 263 -15 407 -59 l89 -28 235 235 234 234 56 -30 c167 -90 432 -329
566 -510 469 -633 490 -1478 54 -2124 -36 -53 -81 -114 -99 -136 l-34 -39
-106 98 -106 99 63 81 c172 220 269 429 312 666 24 130 24 392 1 517 -75 403
-294 777 -584 1000 l-74 57 -139 -139 -138 -138 72 -57 c107 -86 266 -257 266
-287 0 -9 -81 -80 -176 -156 -23 -17 -23 -17 -62 40 -45 66 -175 194 -244 241
l-46 32 -274 -280 -273 -280 -282 282 c-323 323 -277 301 -403 194 -324 -272
-445 -718 -299 -1097 90 -235 298 -432 574 -546 129 -53 115 -103 115 432 l0
465 335 0 336 0 -3 -92 -3 -93 -205 -5 -205 -5 0 -120 0 -120 203 -3 202 -2 0
-110 0 -110 -202 -2 -203 -3 0 -155 0 -155 90 1 c119 1 231 31 370 98 119 58
218 124 306 204 l55 50 98 -96 98 -97 -79 -75 c-214 -206 -501 -325 -855 -355
l-77 -7 -3 -141 -3 -142 -127 -3 -128 -3 -2 161 -3 161 -105 34 c-431 140
-761 480 -866 893 -50 197 -50 419 1 598 34 120 120 290 198 394 63 83 170
192 272 277 l50 41 -135 136 c-74 75 -140 136 -146 136 -6 0 -55 -40 -110 -88
-363 -323 -551 -713 -571 -1182 -6 -152 5 -262 43 -408 51 -195 163 -414 290
-566 l65 -77 -93 -88 -93 -88 -54 66 c-200 244 -324 519 -383 851 -20 114 -16
440 6 565 95 525 394 973 845 1267 58 37 107 68 110 68 3 0 110 -104 238 -232z
m1837 -237 c223 -192 407 -504 481 -814 78 -326 44 -670 -91 -939 -20 -40 -43
-83 -51 -95 -15 -23 -26 -12 -592 549 -317 315 -576 578 -576 585 0 13 283
303 296 303 23 0 180 -166 232 -245 33 -49 63 -89 68 -88 14 4 309 255 309
263 0 23 -119 171 -212 264 l-110 108 83 84 c46 46 86 84 89 84 4 0 37 -26 74
-59z m-1731 -1531 l267 -265 0 -86 c0 -47 -3 -88 -6 -92 -8 -8 -102 34 -176
79 -145 88 -267 221 -338 368 -44 90 -80 217 -80 279 l0 41 33 -29 c17 -16
152 -149 300 -295z"/>
<path d="M3255 3495 c-44 -9 -87 -18 -94 -21 -10 -3 35 -55 139 -159 l155
-155 147 147 c81 81 144 151 140 154 -4 4 -43 15 -87 24 -111 24 -300 28 -400
10z m339 -71 c15 -6 4 -21 -60 -85 l-79 -79 -83 82 -83 83 38 7 c44 8 241 2
267 -8z"/>
</g>
</svg>
