<?xml version="1.0" encoding="UTF-8" standalone="no"?>
<!DOCTYPE svg PUBLIC "-//W3C//DTD SVG 1.1//EN" "http://www.w3.org/Graphics/SVG/1.1/DTD/svg11.dtd">
<svg height="30.0pt" stroke-miterlimit="10" style="fill:#000;stroke:#000;fill-rule:nonzero;clip-rule:evenodd;stroke-linecap:round;stroke-linejoin:round;" version="1.1" viewBox="0 0 30 30" width="30.0pt" xml:space="preserve" xmlns="http://www.w3.org/2000/svg" xmlns:xlink="http://www.w3.org/1999/xlink">
<defs/>
<g id="facebook">
	 <path d="M15,3C8.373,3,3,8.373,3,15c0,6.016,4.432,10.984,10.206,11.852V18.18h-2.969v-3.154h2.969v-2.099c0-3.475,1.693-5,4.581-5 c1.383,0,2.115,0.103,2.461,0.149v2.753h-1.97c-1.226,0-1.654,1.163-1.654,2.473v1.724h3.593L19.73,18.18h-3.106v8.697 C22.481,26.083,27,21.075,27,15C27,8.373,21.627,3,15,3z">
	 </path>
</g>
<g id="instagram">
	<path d="M 11.46875 5 C 7.917969 5 5 7.914063 5 11.46875 L 5 20.53125 C 5 24.082031 7.914063 27 11.46875 27 L 20.53125 27 C 24.082031 27 27 24.085938 27 20.53125 L 27 11.46875 C 27 7.917969 24.085938 5 20.53125 5 Z M 11.46875 7 L 20.53125 7 C 23.003906 7 25 8.996094 25 11.46875 L 25 20.53125 C 25 23.003906 23.003906 25 20.53125 25 L 11.46875 25 C 8.996094 25 7 23.003906 7 20.53125 L 7 11.46875 C 7 8.996094 8.996094 7 11.46875 7 Z M 21.90625 9.1875 C 21.402344 9.1875 21 9.589844 21 10.09375 C 21 10.597656 21.402344 11 21.90625 11 C 22.410156 11 22.8125 10.597656 22.8125 10.09375 C 22.8125 9.589844 22.410156 9.1875 21.90625 9.1875 Z M 16 10 C 12.699219 10 10 12.699219 10 16 C 10 19.300781 12.699219 22 16 22 C 19.300781 22 22 19.300781 22 16 C 22 12.699219 19.300781 10 16 10 Z M 16 12 C 18.222656 12 20 13.777344 20 16 C 20 18.222656 18.222656 20 16 20 C 13.777344 20 12 18.222656 12 16 C 12 13.777344 13.777344 12 16 12 Z">
	</path>
</g>
<g id="twitter">
	<path d="M28,6.937c-0.957,0.425-1.985,0.711-3.064,0.84c1.102-0.66,1.947-1.705,2.345-2.951c-1.03,0.611-2.172,1.055-3.388,1.295 c-0.973-1.037-2.359-1.685-3.893-1.685c-2.946,0-5.334,2.389-5.334,5.334c0,0.418,0.048,0.826,0.138,1.215 c-4.433-0.222-8.363-2.346-10.995-5.574C3.351,6.199,3.088,7.115,3.088,8.094c0,1.85,0.941,3.483,2.372,4.439 c-0.874-0.028-1.697-0.268-2.416-0.667c0,0.023,0,0.044,0,0.067c0,2.585,1.838,4.741,4.279,5.23 c-0.447,0.122-0.919,0.187-1.406,0.187c-0.343,0-0.678-0.034-1.003-0.095c0.679,2.119,2.649,3.662,4.983,3.705 c-1.825,1.431-4.125,2.284-6.625,2.284c-0.43,0-0.855-0.025-1.273-0.075c2.361,1.513,5.164,2.396,8.177,2.396 c9.812,0,15.176-8.128,15.176-15.177c0-0.231-0.005-0.461-0.015-0.69C26.38,8.945,27.285,8.006,28,6.937z">
	</path>
</g>
<g id="youtube">
	<path d="M 44.898438 14.5 C 44.5 12.300781 42.601563 10.699219 40.398438 10.199219 C 37.101563 9.5 31 9 24.398438 9 C 17.800781 9 11.601563 9.5 8.300781 10.199219 C 6.101563 10.699219 4.199219 12.199219 3.800781 14.5 C 3.398438 17 3 20.5 3 25 C 3 29.5 3.398438 33 3.898438 35.5 C 4.300781 37.699219 6.199219 39.300781 8.398438 39.800781 C 11.898438 40.5 17.898438 41 24.5 41 C 31.101563 41 37.101563 40.5 40.601563 39.800781 C 42.800781 39.300781 44.699219 37.800781 45.101563 35.5 C 45.5 33 46 29.398438 46.101563 25 C 45.898438 20.5 45.398438 17 44.898438 14.5 Z M 19 32 L 19 18 L 31.199219 25 Z">
	</path>
</g>
<g id="snapchat">
	<path d="M 46.773438 35.078125 C 40.96875 34.121094 38.316406 28.109375 38.230469 27.914063 C 38.21875 27.878906 38.191406 27.816406 38.175781 27.78125 C 38 27.429688 37.824219 26.933594 37.972656 26.582031 C 38.226563 25.980469 39.433594 25.597656 40.15625 25.367188 C 40.410156 25.285156 40.652344 25.210938 40.839844 25.136719 C 42.59375 24.441406 43.46875 23.535156 43.449219 22.433594 C 43.433594 21.546875 42.753906 20.734375 41.753906 20.382813 C 41.40625 20.234375 41.007813 20.160156 40.605469 20.160156 C 40.332031 20.160156 39.917969 20.199219 39.519531 20.382813 C 38.851563 20.695313 38.265625 20.863281 37.847656 20.882813 C 37.757813 20.878906 37.679688 20.871094 37.613281 20.859375 L 37.65625 20.171875 C 37.851563 17.0625 38.097656 13.1875 37.046875 10.832031 C 33.945313 3.890625 27.375 3.351563 25.433594 3.351563 L 24.550781 3.359375 C 22.613281 3.359375 16.054688 3.898438 12.960938 10.835938 C 11.910156 13.191406 12.152344 17.0625 12.351563 20.175781 L 12.359375 20.292969 C 12.371094 20.484375 12.382813 20.675781 12.394531 20.859375 C 11.960938 20.9375 11.113281 20.792969 10.234375 20.382813 C 9.039063 19.824219 6.886719 20.5625 6.589844 22.125 C 6.457031 22.816406 6.617188 24.128906 9.164063 25.132813 C 9.355469 25.210938 9.59375 25.285156 9.851563 25.367188 C 10.570313 25.597656 11.777344 25.976563 12.03125 26.582031 C 12.179688 26.933594 12.003906 27.429688 11.796875 27.855469 C 11.6875 28.109375 9.050781 34.121094 3.234375 35.078125 C 2.492188 35.199219 1.964844 35.855469 2.003906 36.613281 C 2.015625 36.8125 2.066406 37.011719 2.148438 37.207031 C 2.675781 38.445313 4.59375 39.296875 8.171875 39.878906 C 8.234375 40.089844 8.304688 40.402344 8.34375 40.574219 C 8.417969 40.929688 8.5 41.289063 8.609375 41.664063 C 8.714844 42.019531 9.078125 42.84375 10.210938 42.84375 C 10.554688 42.84375 10.929688 42.769531 11.332031 42.691406 C 11.925781 42.574219 12.667969 42.429688 13.621094 42.429688 C 14.152344 42.429688 14.699219 42.476563 15.25 42.566406 C 16.265625 42.734375 17.183594 43.386719 18.25 44.136719 C 19.914063 45.316406 21.800781 46.648438 24.726563 46.648438 C 24.804688 46.648438 24.882813 46.644531 24.957031 46.640625 C 25.0625 46.644531 25.171875 46.648438 25.28125 46.648438 C 28.207031 46.648438 30.09375 45.3125 31.761719 44.136719 C 32.777344 43.414063 33.738281 42.738281 34.757813 42.566406 C 35.308594 42.476563 35.855469 42.429688 36.386719 42.429688 C 37.304688 42.429688 38.03125 42.546875 38.679688 42.675781 C 39.140625 42.765625 39.507813 42.808594 39.847656 42.808594 C 40.605469 42.808594 41.1875 42.375 41.398438 41.648438 C 41.507813 41.28125 41.585938 40.925781 41.664063 40.566406 C 41.695313 40.433594 41.769531 40.097656 41.835938 39.875 C 45.414063 39.292969 47.332031 38.441406 47.855469 37.214844 C 47.941406 37.019531 47.988281 36.816406 48.003906 36.605469 C 48.042969 35.859375 47.515625 35.203125 46.773438 35.078125 Z">
	</path>
</g>
<g id="twitch">
	<path d="M 5.3632812 2 L 2 6.6367188 L 2 20 L 7 20 L 7 23 L 10 23 L 13 20 L 17 20 L 22 15 L 22 2 L 5.3632812 2 z M 6 4 L 20 4 L 20 13 L 17 16 L 12 16 L 9 19 L 9 16 L 6 16 L 6 4 z M 11 7 L 11 12 L 13 12 L 13 7 L 11 7 z M 16 7 L 16 12 L 18 12 L 18 7 L 16 7 z">
	</path>
</g>
</svg>
